<?xml version="1.0" encoding="UTF-8" standalone="no"?>
<!-- Created with Inkscape (http://www.inkscape.org/) -->

<svg
   xmlns:dc="http://purl.org/dc/elements/1.1/"
   xmlns:cc="http://creativecommons.org/ns#"
   xmlns:rdf="http://www.w3.org/1999/02/22-rdf-syntax-ns#"
   xmlns:svg="http://www.w3.org/2000/svg"
   xmlns="http://www.w3.org/2000/svg"
   xmlns:xlink="http://www.w3.org/1999/xlink"
   xmlns:sodipodi="http://sodipodi.sourceforge.net/DTD/sodipodi-0.dtd"
   xmlns:inkscape="http://www.inkscape.org/namespaces/inkscape"
   width="103.82151mm"
   height="63.760571mm"
   viewBox="0 0 103.82151 63.760571"
   version="1.1"
   id="svg8"
   inkscape:version="0.92.2 (5c3e80d, 2017-08-06)"
   sodipodi:docname="label.svg">
  <defs
     id="defs2" />
  <sodipodi:namedview
     id="base"
     pagecolor="#ffffff"
     bordercolor="#666666"
     borderopacity="1.0"
     inkscape:pageopacity="0.0"
     inkscape:pageshadow="2"
     inkscape:zoom="2.8284271"
     inkscape:cx="233.19209"
     inkscape:cy="173.97925"
     inkscape:document-units="mm"
     inkscape:current-layer="layer2"
     showgrid="false"
     inkscape:window-width="3781"
     inkscape:window-height="2091"
     inkscape:window-x="59"
     inkscape:window-y="41"
     inkscape:window-maximized="1"
     inkscape:object-paths="true"
     inkscape:snap-intersection-paths="true"
     inkscape:snap-nodes="false"
     showguides="true"
     width="100mm"
     inkscape:guide-bbox="true"
     fit-margin-right="0"
     fit-margin-top="0"
     fit-margin-bottom="0"
     fit-margin-left="0">
    <sodipodi:guide
       position="111.80836,-9.2677724"
       orientation="0,1"
       id="guide5011"
       inkscape:locked="false" />
  </sodipodi:namedview>
  <metadata
     id="metadata5">
    <rdf:RDF>
      <cc:Work
         rdf:about="">
        <dc:format>image/svg+xml</dc:format>
        <dc:type
           rdf:resource="http://purl.org/dc/dcmitype/StillImage" />
        <dc:title></dc:title>
      </cc:Work>
    </rdf:RDF>
  </metadata>
  <g
     inkscape:label="Graphic"
     inkscape:groupmode="layer"
     id="layer1"
     transform="translate(0.94794415,-233.89355)"
     style="display:inline">
    <path
       style="display:inline;fill:#ffff00;fill-opacity:1;fill-rule:evenodd;stroke:#ffff00;stroke-width:4;stroke-linecap:round;stroke-linejoin:round;stroke-miterlimit:4;stroke-dasharray:none;stroke-opacity:1"
       d="m 96.816553,235.91074 c -0.0666,-0.009 -0.13413,-0.0145 -0.20244,-0.0172 l 10e-4,0.002 c -0.71064,-0.0271 -1.39062,0.29165 -1.82367,0.85576 0,0 -1.013687,1.36035 -7.620762,7.4463 -0.621092,0.57204 -1.32342,1.19253 -2.085915,1.83862 l 0.176367,-0.0648 c -1.023896,0.37825 -2.008467,0.83472 -2.942019,1.60062 0.15164,-0.78275 0.444591,-1.9334 0.556826,-2.56741 l -2.79e-4,-0.002 c 0.124789,-0.69947 0.226779,-1.28782 0.302193,-1.74804 l -3.41e-4,-0.002 c 0.07071,-0.43281 0.09621,-0.58642 0.118689,-0.73493 l -4.8e-5,-0.004 c 0.0071,-0.0446 0.07055,-0.44428 0.03885,-0.24628 0.02475,-0.16539 0.03085,-0.33316 0.01767,-0.49987 -0.0974,-2.51943 -3.672847,-2.911 -4.312997,-0.47232 0,0 -1.679505,5.89919 -4.257831,10.326 -0.363242,-0.13629 -0.754887,-0.15894 -1.135529,-0.22755 0.0731,-1.43036 0.227698,-2.96887 0.148451,-4.07564 l -2.79e-4,-0.002 c -0.114708,-1.65344 -0.313805,-2.83935 -0.313805,-2.83935 -0.386868,-2.27888 -3.58063,-2.48614 -4.258766,-0.27635 0,0 -1.367402,3.86383 -3.02745,7.22594 -0.152609,0.0773 -0.468601,0.10355 -0.59783,0.17666 -0.02581,0.0146 -0.0461,0.0381 -0.07151,0.0527 -0.02545,-0.0312 -0.05236,-0.065 -0.07211,-0.0888 l -0.0018,-0.002 c -0.184687,-0.22332 -0.379742,-0.44929 -0.585766,-0.67749 -0.04838,-0.0535 -0.09157,-0.1016 -0.127119,-0.14027 -0.20968,-0.22873 -0.432738,-0.46713 -0.678012,-0.71708 -0.53582,-0.54595 -1.053559,-1.03495 -1.56316,-1.4696 -0.381565,-0.32548 -0.762303,-0.62443 -1.156639,-0.8946 -0.913963,-0.62613 -1.892771,-1.09645 -2.963722,-1.2815 -0.29056,-0.0502 -0.60092,-0.0829 -0.928463,-0.086 -0.149368,-0.001 -0.297801,0.003 -0.44407,0.0131 -0.115768,0.008 -0.168776,0.0167 -0.158852,0.0158 l -0.0021,-2.4e-4 c -0.09168,0.009 -0.179015,0.0198 -0.264181,0.0319 l 0.0044,-0.002 c -0.110257,0.0156 -0.173475,0.0292 -0.191419,0.0324 l -0.0021,2.8e-4 c -0.07505,0.0131 -0.163735,0.0289 -0.26428,0.0512 -0.03034,0.007 -0.08038,0.0175 -0.150621,0.0349 l -0.0021,-2.4e-4 c -0.06234,0.0155 -0.150954,0.0379 -0.262326,0.0706 -0.111578,0.0327 -0.171031,0.0544 -0.182916,0.0583 -0.079,0.0258 -0.153157,0.0522 -0.221992,0.0773 -0.0123,0.005 -0.07746,0.0265 -0.189565,0.0711 -0.126796,0.0503 -0.212093,0.0892 -0.262815,0.11167 0.0052,-0.001 -0.03514,0.0137 -0.118246,0.0521 l -0.0023,0.002 c -0.100056,0.0463 -0.193769,0.0918 -0.282331,0.13702 -0.259571,0.13233 -0.516825,0.27863 -0.772362,0.44083 -0.02407,0.0152 -0.04647,0.032 -0.06927,0.0468 l -0.0021,-2.4e-4 c -0.126464,0.0816 -0.235343,0.16033 -0.34979,0.24119 -0.06257,-0.0766 -0.124109,-0.1532 -0.191171,-0.23127 -0.328463,-0.38213 -0.670718,-0.73392 -1.004963,-1.06304 -0.223036,-0.21954 -0.44332,-0.42999 -0.657378,-0.62841 -0.207506,-0.19245 -0.413486,-0.37999 -0.618852,-0.5595 -0.399136,-0.34873 -0.745453,-0.63045 -1.056002,-0.85563 -0.100619,-0.0729 -0.21231,-0.1504 -0.337158,-0.22805 -0.122499,-0.0762 -0.238234,-0.14068 -0.343335,-0.1965 -0.22155,-0.11781 -0.446396,-0.21922 -0.670939,-0.30698 -0.436886,-0.17074 -0.829666,-0.27822 -1.193858,-0.37823 -0.09711,-0.0267 -0.172262,-0.0378 -0.256849,-0.0556 -0.103887,-0.11287 -0.354482,-0.45726 -0.303141,-0.40882 -0.178308,-0.16829 -0.366223,-0.32577 -0.561909,-0.47508 -0.195663,-0.14934 -0.383927,-0.28074 -0.571248,-0.40646 -0.387807,-0.26029 -0.83941,-0.53915 -1.34214,-0.80433 -0.502715,-0.26519 -1.049744,-0.51279 -1.641097,-0.70873 -1.539301,-0.51 -2.422433,-0.54141 -2.933888,-0.58589 -0.140705,-0.12944 -0.292922,-0.26527 -0.491756,-0.40576 l -0.0021,-2.4e-4 c -0.236403,-0.16673 -0.50936,-0.33057 -0.81096,-0.47523 -0.162092,-0.0778 -0.320804,-0.14283 -0.478736,-0.20406 -0.519212,-0.20132 -1.021762,-0.29294 -1.426175,-0.32915 -0.140054,-0.0129 -0.263269,-0.0187 -0.368776,-0.0226 -0.175249,-0.006 -0.346543,-0.005 -0.512747,-4e-4 -0.673641,0.0195 -0.836376,0.0963 -1.214156,0.177 -0.128154,-0.0657 -0.233035,-0.10757 -0.305463,-0.13605 -0.0021,-7.8e-4 -0.0038,-9.7e-4 -0.006,-0.002 -0.05765,-0.0224 -0.089,-0.0323 -0.117978,-0.042 l -0.01454,-0.005 c -0.01466,-0.006 -1.218237,-0.4454 -2.475902,-0.71236 -0.186274,-0.0395 -0.372092,-0.0731 -0.554808,-0.1019 -0.313813,-0.0493 -0.612001,-0.0672 -0.885479,-0.0661 -0.879611,0.003 -1.620516,0.1625 -2.164058,0.31217 -0.203397,0.0559 -0.348752,0.10641 -0.494608,0.15612 -0.31232,-0.0189 -0.634592,-0.0441 -1.411841,-0.0519 -1.144742,-0.0114 -2.57433,-0.0118 -4.013328,0.31576 -0.962832,0.21921 -1.803809,0.58247 -2.517112,0.96749 -0.431301,0.23281 -0.813691,0.47534 -1.141821,0.69955 -0.57711,0.39436 -0.721078,0.55135 -0.968779,0.76962 -0.06251,0.0222 -0.135089,0.0362 -0.193593,0.0607 l -0.0015,-1.7e-4 c -0.09989,0.0421 -0.228129,0.0999 -0.386316,0.1918 -0.0025,0.002 -0.92338,0.53489 -1.9548,1.15918 -0.99996,0.60522 -2.040529,1.18818 -2.930003,1.94419 -0.151363,0.12874 -0.282137,0.25274 -0.396353,0.36748 -0.126449,0.12725 -0.24532,0.2564 -0.355703,0.3851 -0.222095,0.25895 -0.417613,0.52166 -0.59542,0.78386 -0.174636,0.25747 -0.334555,0.5175 -0.4858917,0.77651 -0.147268,0.25208 -0.288234,0.50371 -0.425519,0.75319 -0.297269,0.54023 -0.572354,1.09416 -0.800576,1.65305 -0.07711,0.18885 -0.201319,0.45319 -0.317295,0.84452 l 2.79e-4,0.002 c -0.02612,0.0907 -0.04677,0.18326 -0.06099,0.27652 -0.0296,0.12435 -0.06261,0.23613 -0.08296,0.37857 l 2.78e-4,0.002 c -2.4e-5,1.7e-4 -3.4e-5,3.5e-4 -5.8e-5,5.2e-4 -0.03356,0.23505 -0.05027,0.48688 -0.04765,0.74142 8.75e-4,0.0784 0.01577,0.13114 0.02129,0.20213 -0.05444,0.0497 -0.116184,0.10468 -0.149311,0.13805 -7.03e-4,7.2e-4 -0.0015,8.6e-4 -0.0023,0.002 -4.91e-4,5.1e-4 -0.0013,0.001 -0.0017,0.001 -0.07725,0.0781 -0.153303,0.16235 -0.223803,0.24923 l -0.0018,0.002 c -0.06876,0.085 -0.133265,0.17277 -0.200177,0.27479 0.0074,-0.012 -0.0099,0.008 -0.0698,0.1065 -0.0067,0.0105 -0.01273,0.0215 -0.01925,0.0321 0,0 -0.09892,0.18368 -0.131336,0.24099 -0.08266,0.0568 -0.16811,0.11505 -0.243884,0.16946 -0.149619,0.10747 -0.195755,0.14545 -0.144849,0.10787 l -2.36e-4,0.002 c -0.184737,0.13647 -0.396868,0.2952 -0.631048,0.48768 -0.112241,0.0924 -0.171182,0.14589 -0.177303,0.15101 -0.187636,0.15815 -0.388318,0.32813 -0.601626,0.52208 l 0.05214,-0.0425 c -0.01901,0.016 -0.03816,0.032 -0.05649,0.0487 -0.256484,0.23327 -0.523719,0.48196 -0.798793,0.75196 -0.5438667,0.53368 -1.0326347,1.04916 -1.4693697,1.5611 l -2.36e-4,0.002 c -0.101367,0.11966 -0.189843,0.24985 -0.263487,0.38822 -0.516528,0.64275 -1.002281,1.28077 -1.338071,1.97645 l -2.36e-4,0.002 c -0.0602,0.12476 -0.124282,0.26177 -0.188378,0.41862 -0.06501,0.15917 -0.115717,0.30542 -0.158417,0.43399 -0.04488,0.13509 -0.0747,0.24365 -0.09544,0.31891 0.02687,-0.0977 0.01103,-0.0589 -0.03537,0.12393 l -4.63e-4,0.004 c -0.004,0.0186 -0.0076,0.0368 -0.01097,0.0554 -0.03385,0.14027 -0.06414,0.27658 -0.08523,0.39859 -0.131541,0.76178 -0.106203,1.5592 0.07027,2.31606 l -2.36e-4,0.002 c 0.06915,0.29657 0.159459,0.5917 0.272634,0.88435 0.08916,0.23056 0.193208,0.43635 0.296458,0.6421 7.01e-4,0.002 0.0015,0.004 0.0024,0.007 0.03056,0.0608 0.05701,0.13035 0.08826,0.18943 l -2.36e-4,0.002 c 0.0692,0.13071 0.145339,0.26487 0.227825,0.4034 0.07825,0.1314 0.154087,0.25123 0.228539,0.365 0.007,0.0108 0.0142,0.0239 0.02104,0.0346 l -2.36e-4,0.002 c 0.09214,0.14009 0.184937,0.26971 0.273217,0.39295 0.56168,0.78414 1.239732,1.55363 2.039546,2.36873 0.1947177,0.19855 0.3806777,0.37973 0.5570027,0.55046 0.953514,0.9229 2.501797,0.79422 3.289793,-0.27349 0.04043,0.0831 0.09111,0.19401 0.128085,0.26936 0.15541,0.3169 0.281098,0.57193 0.347331,0.70715 0.398008,0.81255 0.956475,1.33653 1.1761887,1.57084 0.367954,0.39238 0.774989,0.79413 1.160538,1.16755 0.736377,0.71323 1.353629,1.27396 1.422669,1.33718 0.01,0.0164 0.318076,0.52611 0.735863,1.13346 0.363754,0.5288 0.869204,1.34371 1.767677,2.08776 0.674198,0.55829 1.439363,1.02972 2.10026,1.42491 0.330444,0.1976 0.628515,0.36645 0.849263,0.49102 0.220754,0.12457 0.540572,0.30682 0.348015,0.19652 0.0042,0.002 0.0083,0.004 0.01277,0.007 0.06846,0.0387 0.125448,0.0547 0.190014,0.0855 0.133408,0.18367 0.152207,0.28922 0.296175,0.41063 0.0013,7.3e-4 0.0035,10e-4 0.0044,0.002 0.01959,0.0162 0.03949,0.0322 0.05958,0.0478 0.05416,0.0453 0.112558,0.0966 0.223483,0.17564 l 0.0021,2.3e-4 c 0.08829,0.062 0.18074,0.11724 0.277149,0.1656 0.120449,0.0738 0.23663,0.15459 0.3648,0.21819 0.118857,0.059 0.239215,0.11114 0.357059,0.15801 l 0.0021,-2.7e-4 c 0.409273,0.16266 0.896573,0.23978 1.398271,0.2771 0.192937,0.17177 0.202082,0.1942 0.457459,0.40551 0.328813,0.27214 0.727614,0.60832 1.218267,0.94735 0.104902,0.0726 0.231437,0.16013 0.384065,0.25469 l 0.0016,-3.3e-4 c 0.07365,0.0453 0.149947,0.0864 0.228452,0.12263 0.209543,0.12107 0.419347,0.24257 0.657834,0.34918 0.159687,0.0714 0.328091,0.13835 0.504139,0.20018 0.487803,0.17127 0.976834,0.29693 1.45768,0.40449 1.445634,0.32354 2.866519,0.47482 2.875126,0.47574 2.6e-5,0 0.0086,0.002 0.0086,0.002 0.06027,0.0105 0.06915,0.016 0.171377,0.0251 0.261417,0.0233 0.143599,-0.0252 0.279475,-0.0339 0.217165,0.0974 0.343675,0.21346 0.655942,0.25119 0.06118,0.007 0.104075,-0.006 0.160991,-0.003 0.07163,0.0265 0.168745,0.0657 0.417004,0.14765 l 0.0021,-2.8e-4 c 0.008,0.002 0.01589,0.005 0.02367,0.007 0.312899,0.10298 0.749794,0.24027 1.286073,0.3814 0.544752,0.14338 1.181261,0.28893 1.877456,0.40839 0.344832,0.0592 0.708575,0.11371 1.089004,0.15623 0.379571,0.0424 0.768448,0.073 1.163806,0.0883 0.702239,0.0269 1.328475,0.0183 1.87759,-0.0102 0.821803,-0.0424 1.466688,-0.12885 1.929234,-0.21347 0.379846,-0.0695 0.652087,-0.14395 0.724437,-0.1649 8.43e-4,-2.5e-4 0.0085,-0.002 0.0085,-0.002 1.89e-4,-7e-5 0.0038,-10e-4 0.0039,-0.002 0.02076,-0.007 0.250655,-0.0914 0.327661,-0.1194 0.468735,0.0674 0.914627,0.0821 1.061155,0.0808 0.283345,-0.003 0.566253,-0.0163 0.850046,-0.0389 l 0.0021,-2.7e-4 c 0.283376,-0.0225 0.553685,-0.0518 0.80974,-0.0824 0.268006,-0.032 0.527928,-0.0682 0.773209,-0.10425 0.744139,-0.10938 1.376363,-0.22712 1.743338,-0.30319 0.255329,-0.0529 0.495537,-0.12035 0.720567,-0.19499 0.222093,-0.0737 0.430968,-0.15618 0.626394,-0.24051 0.385314,-0.1663 0.714847,-0.33685 1.004781,-0.48625 0.644593,-0.33218 1.213348,-0.66637 1.527367,-0.85243 0.07681,-0.0455 0.06954,-0.0466 0.118308,-0.0802 1.245836,0.94411 2.946647,1.97802 2.946647,1.97802 0.626532,0.37636 1.399451,0.41571 2.061088,0.10521 0.04622,0.03 0.08832,0.0642 0.134472,0.0938 l 0.0021,2.4e-4 c 0.01348,0.008 0.02719,0.0158 0.04046,0.0238 0.276218,0.17585 0.553019,0.34463 0.831898,0.49737 0.279142,0.15289 0.554728,0.28623 0.855625,0.4028 0.0012,6.1e-4 -0.0048,-0.003 -0.0034,-0.002 0.01516,0.007 0.03105,0.0158 0.05992,0.0266 -0.01967,-0.007 -0.03713,-0.0166 -0.05656,-0.0241 -0.02625,-0.013 0.0038,0.002 0.07133,0.0544 0.139375,0.10814 0.394843,0.35071 0.66098,0.6517 0.266261,0.30114 0.553502,0.66188 0.818581,1.01854 0.172304,0.23182 0.339218,0.47014 0.497948,0.69979 0.462339,0.66885 0.765468,1.16593 0.765468,1.16593 1.019636,1.6676 3.546612,1.26897 4.00336,-0.63153 0,0 0.03764,-0.15199 0.08291,-0.35517 l -0.0035,0.0126 c 0.01745,-0.0741 0.03667,-0.15682 0.0629,-0.28879 l -2.79e-4,-0.002 c 0.02591,-0.13004 0.03957,-0.21212 0.04985,-0.26999 l 2.36e-4,-0.002 c 0.02974,-0.16642 0.05416,-0.32853 0.07774,-0.49306 0.0099,-0.0694 0.02348,-0.17515 0.03602,-0.27624 0.08645,0.0515 0.168957,0.10027 0.266947,0.15924 0.142603,0.0858 0.263582,0.15452 0.347877,0.20691 0.122036,0.0758 0.254786,0.16368 0.411433,0.2656 0.130247,0.0847 0.230174,0.14906 0.290049,0.18942 0.105827,0.0714 0.229106,0.15899 0.381523,0.26793 0.129244,0.0924 0.218312,0.15501 0.249215,0.17803 0.192609,0.14386 0.3716,0.28394 0.528425,0.4172 0.721397,0.61282 1.451579,1.32339 2.134662,2.04355 0.683598,0.72068 1.320453,1.45172 1.861865,2.10103 0.53972,0.64728 0.985051,1.21679 1.296082,1.62343 0.309319,0.40443 0.470321,0.62696 0.470318,0.62696 1.296808,1.79361 4.13187,0.7554 3.963704,-1.4515 0,0 -0.0049,-0.0836 -0.0036,-0.0691 l -5.88e-4,0.0239 c 0,0 -0.01105,-0.18681 -0.03835,-0.45994 -0.09382,-0.94269 -0.368738,-3.22015 -1.148306,-5.65181 -0.245877,-0.76695 -0.662509,-1.54617 -1.029094,-2.32699 0.451259,0.1507 0.98594,0.30711 1.386123,0.45307 0.04842,0.0177 0.100472,0.0382 0.158115,0.0595 l 0.0021,-2.8e-4 c 0.277723,0.10272 0.539461,0.2065 0.797449,0.3104 0.108226,0.0437 0.207963,0.0818 0.279605,0.11179 l 2.81e-4,0.002 c 0.06543,0.0274 0.123042,0.0513 0.17275,0.0726 l 2.35e-4,-0.002 c 0.210618,0.0908 0.398471,0.1761 0.542676,0.24564 0.294374,0.14195 0.60782,0.3283 0.928038,0.55767 0.217198,0.15556 0.434574,0.32735 0.647374,0.51026 0.214432,0.18449 0.431026,0.3883 0.649101,0.60511 0.755105,0.75074 1.486888,1.65411 2.132196,2.56074 0.181944,0.25569 0.359381,0.51411 0.531222,0.77325 0.169899,0.25613 0.332261,0.51067 0.486177,0.75773 0.156311,0.25092 0.299864,0.4885 0.43286,0.71425 0.06954,0.11811 0.1395,0.24093 0.223807,0.38839 0.05685,0.0995 0.113097,0.19822 0.15433,0.27181 0.0052,0.007 0.0097,0.0144 0.01474,0.0214 0.257246,0.4603 0.430781,0.7984 0.585787,1.10396 0.06818,0.13447 0.151431,0.29387 0.150065,0.29109 0.09615,0.19453 0.136735,0.28022 0.136735,0.28022 1.013617,2.17404 4.280994,1.37608 4.178512,-1.02045 -0.0022,-0.051 -0.0058,-0.10146 -0.01136,-0.15211 -0.0018,-0.0373 -0.0054,-0.0747 -0.0097,-0.11187 0,0 -0.226851,-1.6688 -0.607114,-3.66827 -0.279029,-1.46719 -0.734633,-2.95989 -1.202868,-4.39526 0.356437,0.12775 0.777174,0.28358 1.124967,0.40786 1.002117,0.35849 1.508277,0.53797 2.271007,0.80874 1.64848,0.5853 2.85727,1.01407 2.85727,1.01407 1.514437,0.53589 3.071937,-0.68437 2.913807,-2.28303 -0.0273,-0.43299 -0.18235,-0.84833 -0.44566,-1.19313 0,0 -1.940547,-2.53264 -4.436727,-5.30328 -2.08253,-2.31153 -4.405585,-4.58409 -6.87272,-6.08341 0.186843,-0.087 0.352836,-0.15014 0.538672,-0.23746 0.01235,-0.006 0.05554,-0.0252 0.10974,-0.0505 l 0.01531,-0.007 c 0.02916,-0.014 0.06197,-0.0303 0.03856,-0.019 l -0.02176,0.009 c 0.515782,-0.24286 0.998578,-0.47389 1.47893,-0.70501 0.518013,-0.0822 1.041881,-0.16881 1.57512,-0.25985 0.100577,-0.0172 0.215172,-0.0365 0.343677,-0.0588 0.39094,-0.0676 0.774221,-0.13587 1.160691,-0.20542 0.59237,-0.10652 1.17534,-0.21319 1.75594,-0.32257 0.24835,-0.0468 0.4908,-0.093 0.74202,-0.14106 0.69479,-0.13299 1.36686,-0.26069 2.00991,-0.38843 1.297127,-0.2577 2.132737,-0.43195 2.931967,-0.59905 l -0.002,0.002 c 0.92047,-0.19197 1.5645,-0.33059 1.56495,-0.33069 1.064577,-0.23076 1.798277,-1.20809 1.723137,-2.29477 -2e-5,-0.003 3.6e-4,-0.006 4.2e-4,-0.008 -0.0255,-0.67176 -0.35735,-1.29395 -0.900127,-1.68931 0,0 -2.33336,-1.57762 -6.280447,-2.51824 0.0676,-0.0654 0.13367,-0.0967 0.20159,-0.16333 1.394857,-1.36871 2.458717,-2.60348 3.123227,-4.03847 0.13116,-0.28259 0.20103,-0.59002 0.20414,-0.90155 l 0.0325,-3.3508 c 0.0115,-1.21097 -0.96059,-2.20187 -2.17155,-2.21364 l -0.821347,-0.008 c 0.596447,-0.86458 0.495437,-2.03058 -0.24021,-2.7805 -0.23953,-0.2441 -0.47766,-0.47922 -0.71849,-0.70867 0.69843,-1.15923 1.420357,-2.34323 2.013017,-3.38838 1.90569,-3.36073 3.1838,-5.89399 3.1838,-5.89399 0.17458,-0.34861 0.25332,-0.73765 0.22759,-1.12668 -10e-6,-0.002 5e-5,-0.004 1.3e-4,-0.006 -0.003,-0.0488 -0.007,-0.0976 -0.0136,-0.14612 -0.10136,-1.02048 -0.89352,-1.82487 -1.89272,-1.95735 z"
       id="path10451"
       inkscape:connector-curvature="0" />
    <path
       d="m 29.607422,-0.16210938 c -1.169622,0.003987 -2.238281,0.45507813 -2.238281,0.45507813 a 1.0936458,1.0936458 0 0 0 -0.06641,0.0292969 c -0.131623,-0.009254 -0.793332,-0.0602409 -1.794922,-0.0703125 -1.094382,-0.011045 -2.401879,0.0118166 -3.482421,0.2578125 -2.233577,0.50850908 -4.0625,2.26757818 -4.0625,2.26757818 a 1.0936458,1.0936458 0 0 0 -0.02734,0.027344 1.0936458,1.0936458 0 0 0 -0.472656,0.1425781 c 0,0 -0.908458,0.5255032 -1.917969,1.1367188 -1.009511,0.6112155 -2.037727,1.2243664 -2.63086,1.7285156 -0.701915,0.5966095 -1.203491,1.463525 -1.732421,2.4238281 -0.264466,0.4801516 -0.504341,0.9640449 -0.6875,1.4121094 -0.18316,0.4480645 -0.343913,0.7856195 -0.337891,1.3535155 0.0036,0.337011 0.119745,0.738863 0.402344,1.080078 0.004,0.04219 -0.03674,0.08359 -0.03125,0.125 0.01002,0.07555 0.05227,0.190449 0.06641,0.265625 -0.7148866,0.08162 -1.1542969,0.441407 -1.1542969,0.441406 a 1.0936458,1.0936458 0 0 0 -0.2421875,0.28125 c 0,0 -0.4127162,0.69287 -0.8066406,1.609376 -0.3939244,0.916505 -0.823508,2.050807 -0.7460938,3.257812 0.1300043,2.027051 1.1834342,4.41866 1.2636719,4.599609 -0.083983,0.368481 -0.081976,0.78038 0.027344,1.169922 0.3874846,1.380732 1.5111281,3.582407 1.8027341,4.177735 0.239331,0.488604 0.466326,0.665633 0.789063,1.009765 0.322736,0.344132 0.706886,0.726484 1.080078,1.087891 0.746384,0.722813 1.451172,1.365234 1.451172,1.365234 a 1.0936458,1.0936458 0 0 0 0.207031,0.146485 1.0936458,1.0936458 0 0 0 0.117187,0.263671 c 0,0 0.297546,0.486877 0.681641,1.044922 0.384095,0.558045 0.779521,1.154792 1.337891,1.617188 0.464095,0.384328 1.140697,0.793891 1.777344,1.179687 0.636646,0.385797 1.182061,0.699155 1.199218,0.708985 a 1.0936458,1.0936458 0 0 0 0.441406,0.138672 c 0.137803,0.249828 0.082,0.340039 0.394532,0.603515 0.353855,0.298318 0.891094,0.550495 1.5,0.554688 0.150508,0.001 0.308496,-0.130219 0.460937,-0.15625 0.01684,0.01618 0.511901,0.491785 1.167969,1.035156 0.667113,0.552519 1.404123,1.167135 2.291016,1.478516 1.413108,0.496148 3.830078,0.763671 3.830078,0.763671 l -0.1875,-0.04102 c 0,0 0.140397,0.04539 0.30664,0.06055 0.08692,0.0079 0.279853,-0.07154 0.423828,-0.09375 0.198459,0.121656 0.360545,0.292933 0.589844,0.320312 0.110778,0.01323 0.214686,-0.04558 0.322266,-0.05078 a 1.0936458,1.0936458 0 0 0 0.257812,0.138672 c 0,0 2.571753,0.977249 5.251954,1.080078 2.535281,0.09727 3.845949,-0.309115 3.863281,-0.314453 0.01098,-0.0028 0.309254,-0.2023 0.5625,-0.390625 0.0027,0.0016 0.0051,0.0042 0.0078,0.0059 0.601918,0.356761 0.946369,0.273612 1.390625,0.269532 0.444256,-0.0041 0.927315,-0.04765 1.410156,-0.105469 0.965684,-0.115633 1.909374,-0.291362 2.322266,-0.376953 0.629397,-0.130475 1.185673,-0.416135 1.761719,-0.712891 0.576046,-0.296756 1.111359,-0.608098 1.410156,-0.785156 0.329272,-0.195107 0.548412,-0.479601 0.691406,-0.769531 0.564847,-0.0363 1.636882,-0.172229 2.679688,-1.119141 0.526477,-0.478066 1.041261,-1.033449 1.417969,-1.605469 0.188354,-0.28601 0.356997,-0.560107 0.441406,-0.978516 0.0422,-0.209204 0.06604,-0.478465 -0.04687,-0.794921 -0.112917,-0.316457 -0.40537,-0.623473 -0.693359,-0.757813 -0.0026,-0.0012 -0.0071,-0.0027 -0.0098,-0.0039 1.81853,-0.909308 4.060547,-2.033203 4.060547,-2.033203 l -0.128907,0.05469 c 0,0 0.500419,-0.176913 0.837891,-0.630859 0.337472,-0.453946 0.485001,-1.226051 0.253906,-1.980469 -0.181174,-0.591469 -0.631682,-1.691116 -1.140625,-2.929687 -0.132292,-0.32195 -0.213827,-0.514575 -0.345703,-0.832032 a 1.0936458,1.0936458 0 0 0 1.332031,-0.726562 c 0,0 0.145624,-0.459506 0.240235,-1.029297 0.09461,-0.569791 0.253777,-1.251019 -0.160156,-2.080078 -0.332562,-0.666065 -0.392579,-0.875 -0.392579,-0.875 l 0.0332,0.136719 c 0,0 -0.06284,-0.390058 -0.253907,-0.824219 -0.08946,-0.203272 -0.219888,-0.433989 -0.423828,-0.666016 a 1.0936458,1.0936458 0 0 0 0.0078,-0.238281 c 0,0 -0.120885,-2.705577 -1.535156,-4.783203 -1.275329,-1.873513 -3.046875,-3.384766 -3.046876,-3.384766 a 1.0936458,1.0936458 0 0 0 -0.425781,-0.228515 c 0,0 -0.343194,-0.0564 -0.68164,-0.08008 C 51.841111,10.402168 51.782255,10.141977 51.6875,9.9628906 51.566216,9.7336645 51.42342,9.5327346 51.263672,9.328125 50.944175,8.9189058 50.550815,8.5035934 50.140625,8.0996094 49.320245,7.2916414 48.509302,6.5946794 48.074219,6.2792969 47.541692,5.8933079 46.973253,5.7192589 46.269531,5.5253906 45.899556,5.4234663 45.502535,5.3987585 45.111328,5.3339844 45.086143,5.2433562 45.143654,5.0636409 45.119141,5.0117188 44.960769,4.6762689 44.853661,4.6244493 44.738281,4.515625 44.507522,4.2979765 44.234267,4.0963912 43.898438,3.8710938 43.226778,3.4204989 42.357848,2.9248039 41.476562,2.6328125 39.882067,2.1044957 38.388672,2.0117188 38.388672,2.0117188 a 1.0936458,1.0936458 0 0 0 -0.208984,0.00781 C 37.928416,1.7481273 37.581678,1.2822276 36.652344,0.921875 36.284712,0.77927678 35.937259,0.73491126 35.605469,0.72265625 c -0.981498,-0.0362504 -1.873047,0.21875 -1.873047,0.21875 a 1.0936458,1.0936458 0 0 0 -0.146484,0.0507813 c 0,0 -0.205863,0.0867123 -0.222657,0.09375 a 1.0936458,1.0936458 0 0 0 -0.601562,-0.5 c 0,0 -1.52705,-0.53710243 -2.63086,-0.7109375 h -0.002 c -0.1883,-0.0298357 -0.361278,-0.0375916 -0.521484,-0.0371094 z m 17.371094,34.18554738 0.03516,0.05859 c -0.03333,0.03151 -0.228516,0.08008 -0.228516,0.08008 z"
       id="path10103"
       style="display:inline;fill:#000000;fill-rule:evenodd;stroke:#000000;stroke-width:0.56785798px;stroke-linecap:butt;stroke-linejoin:miter;stroke-opacity:1"
       xlink:href="#path5392"
       inkscape:original="M 29.611328 0.93164062 C 28.769377 0.93451063 27.753906 1.3164062 27.753906 1.3164062 C 27.753906 1.3164062 27.996748 1.7341417 28.476562 2.6894531 C 28.956381 3.6447645 29.791016 2.9550781 29.791016 2.9550781 L 32.412109 1.6230469 C 32.412109 1.6230469 30.836722 1.0929825 29.958984 0.95507812 C 29.849293 0.93761112 29.7316 0.93127863 29.611328 0.93164062 z M 25.496094 1.3457031 C 24.43744 1.3350187 23.155733 1.3739748 22.267578 1.5761719 C 20.491271 1.9805764 18.693359 3.5917969 18.693359 3.5917969 L 19.501953 7.1445312 C 19.501953 7.1445312 19.368912 8.4279673 20.873047 7.4726562 C 22.377125 6.5173393 24.882754 6.1135437 25.078125 6.0273438 C 25.273496 5.9411638 27.287109 5.546875 27.287109 5.546875 C 27.287109 5.546875 28.501977 5.6551248 28.056641 3.984375 C 27.611299 2.3136622 27.390625 1.4179688 27.390625 1.4179688 C 27.390625 1.4179688 26.554757 1.3563486 25.496094 1.3457031 z M 35.564453 1.8164062 C 34.817901 1.7888332 34.007812 2 34.007812 2 C 34.007812 2 31.299225 3.1351526 30.091797 3.6386719 C 28.884368 4.1421917 29.183594 5.1484375 29.183594 5.1484375 C 29.183594 5.1484375 29.847767 8.9702074 30.423828 10.408203 C 30.999897 11.8462 32.021484 10.986328 32.021484 10.986328 C 32.021484 10.986328 37.046539 8.886079 38.058594 8.46875 C 39.07065 8.05143 38.679688 6.96875 38.679688 6.96875 L 37.804688 3.0664062 C 37.804688 3.0664062 37.067315 2.2552939 36.257812 1.9414062 C 36.055442 1.8629103 35.813305 1.8255978 35.564453 1.8164062 z M 38.316406 3.1035156 L 39.240234 6.984375 C 39.240234 6.984375 39.525148 8.0249019 40.591797 7.4667969 C 41.658442 6.9086909 43.720441 5.5628739 44.091797 5.5449219 C 44.463147 5.5269379 42.56794 4.1454146 41.132812 3.6699219 C 39.697682 3.1944088 38.316406 3.1035156 38.316406 3.1035156 z M 18.009766 3.8945312 C 18.009766 3.8945312 14.408126 5.9791854 13.623047 6.6464844 C 12.837975 7.3137744 11.241378 10.177137 11.25 10.990234 C 11.2545 11.413072 11.436779 11.518892 11.6875 11.515625 C 11.619 11.587765 11.568252 11.737641 11.611328 12.0625 C 11.708378 12.79421 13.662109 19.25 13.662109 19.25 C 13.662109 19.25 13.814588 20.19778 15.105469 19.628906 C 16.396352 19.060042 21.089844 17.072266 21.089844 17.072266 C 21.089844 17.072266 21.725432 16.898633 21.542969 15.9375 C 21.360508 14.976359 19.681641 9.2539063 19.681641 9.2539062 C 19.681641 9.2539062 19.184503 8.4577545 18.539062 8.7421875 C 18.26642 8.8623385 17.000872 9.380258 15.671875 9.921875 C 16.910542 9.295523 18.133657 8.6459509 18.533203 8.3886719 C 19.39657 7.8327219 18.964844 7.3808594 18.964844 7.3808594 L 18.009766 3.8945312 z M 28.302734 5.8261719 C 28.06597 5.8103219 27.867187 5.9335937 27.867188 5.9335938 C 27.867188 5.9335938 22.748639 7.2284991 21.191406 7.7988281 C 19.634174 8.3691471 20.205078 9.4023438 20.205078 9.4023438 L 22.130859 15.087891 C 22.116959 15.761705 22.731204 15.452602 22.771484 15.416016 C 22.771484 15.416016 28.337674 12.757374 29.417969 12.164062 C 30.498263 11.570761 30.164063 11.076172 30.164062 11.076172 C 30.164062 11.076172 29.251331 7.6860839 28.958984 6.5605469 C 28.812813 5.9977689 28.539494 5.8420629 28.302734 5.8261719 z M 44.035156 6.2558594 L 44.035156 6.2578125 C 43.866705 6.2530125 43.709063 6.2559524 43.566406 6.2714844 C 42.425052 6.3957524 41.289063 7.65625 41.289062 7.65625 C 40.144124 8.103018 40.207031 9.5039063 40.207031 9.5039062 C 40.207031 9.5039062 41.701903 14.942965 42.048828 15.927734 C 42.395764 16.912485 43.419922 16.255859 43.419922 16.255859 C 43.419922 16.255859 49.31437 12.954398 50.177734 12.398438 C 51.041117 11.842488 50.780003 11.580695 50.828125 10.830078 C 50.876195 10.079465 48.032119 7.5993365 47.431641 7.1640625 C 46.906199 6.7832085 45.214376 6.2896334 44.035156 6.2558594 z M 38.611328 8.7949219 C 38.126124 8.8194219 37.707031 9.0605469 37.707031 9.0605469 C 37.707031 9.0605469 33.601786 10.6678 32.125 11.552734 C 30.648219 12.437659 31.283203 13.412109 31.283203 13.412109 C 31.283203 13.412109 33.000482 18.694796 33.384766 19.896484 C 33.769054 21.098164 34.658203 20.470703 34.658203 20.470703 C 34.658203 20.470703 40.355261 18.104688 41.212891 17.667969 C 42.070515 17.23125 41.75 16.175781 41.75 16.175781 C 41.75 16.175781 40.453299 11.584754 39.916016 9.8378906 C 39.647375 8.9644596 39.096526 8.7705039 38.611328 8.7949219 z M 51.720703 11.763672 C 51.463191 11.775242 51.232025 11.876805 51.333984 12.240234 C 51.537979 12.967131 54.095703 20.152344 54.095703 20.152344 C 54.095703 20.152344 54.0798 20.714115 55 20.220703 C 55.920115 19.727242 56.46875 19.251953 56.46875 19.251953 C 56.46875 19.251953 56.279891 16.709098 55.119141 15.003906 C 53.958391 13.298714 52.261719 11.830078 52.261719 11.830078 C 52.261719 11.830078 51.978204 11.752122 51.720703 11.763672 z M 50.564453 12.691406 C 50.384044 12.691587 50.15486 12.7452 49.867188 12.886719 C 48.716504 13.452718 43.193359 16.736328 43.193359 16.736328 C 43.193359 16.736328 42.786158 17.265496 43.158203 17.976562 C 43.158203 17.976562 44.087052 21.009572 44.367188 21.644531 C 44.647323 22.27949 45.535156 24.6875 45.535156 24.6875 C 45.535156 24.6875 45.542844 25.501294 46.441406 24.958984 C 47.339976 24.416685 53.287109 21.296875 53.287109 21.296875 C 53.287109 21.296875 54.042582 21.225172 53.650391 19.939453 C 53.258211 18.65373 51.216797 13.166016 51.216797 13.166016 C 51.216797 13.166016 51.10565 12.690595 50.564453 12.691406 z M 29.705078 12.849609 C 29.579555 12.848963 29.448016 12.876733 29.314453 12.945312 C 28.602114 13.311117 21.951172 16.486328 21.951172 16.486328 C 21.951172 16.486328 21.507912 16.384251 21.695312 17.158203 C 21.882714 17.93215 24.796875 24.658203 24.796875 24.658203 C 24.796875 24.658203 25.069459 25.657387 26.494141 24.925781 C 27.918829 24.194165 33.109375 21.619141 33.109375 21.619141 C 33.109375 21.619141 33.823008 21.372723 33.513672 20.361328 C 33.204335 19.349934 30.679687 13.384766 30.679688 13.384766 C 30.679688 13.384766 30.248901 12.85262 29.705078 12.849609 z M 10.851562 13.494141 C 10.487051 13.465491 10.136719 13.755859 10.136719 13.755859 C 10.136719 13.755859 8.6271451 16.289861 8.7363281 17.992188 C 8.8455061 19.694512 9.9609375 22.353516 9.9609375 22.353516 C 9.9609375 22.353516 11.450953 21.431637 12.816406 20.625 C 14.181858 19.818372 13.306641 19.15625 13.306641 19.15625 C 13.306641 19.15625 11.868496 15.03549 11.451172 14.023438 C 11.294674 13.643913 11.070258 13.511326 10.851562 13.494141 z M 20.861328 17.667969 C 19.335822 17.576539 15.425781 20.058594 15.425781 20.058594 C 15.425781 20.058594 14.080117 20.710603 14.789062 22.119141 C 15.49801 23.527689 17.376953 28.183594 17.376953 28.183594 C 17.376953 28.183594 17.554009 29.709651 19.578125 28.875 C 21.602238 28.040347 24.125 26.548828 24.125 26.548828 C 24.125 26.548828 24.576551 26.319115 23.925781 24.447266 C 23.275011 22.575433 21.501953 18.851563 21.501953 18.851562 C 21.501953 18.851562 21.209178 17.725425 21.001953 17.685547 C 20.957973 17.676447 20.910568 17.670599 20.861328 17.667969 z M 42.009766 17.914062 C 41.884515 17.905963 41.752604 17.925738 41.615234 17.986328 C 40.882599 18.309565 34.056641 21.087891 34.056641 21.087891 C 34.056641 21.087891 33.620208 20.95861 33.761719 21.742188 C 33.903221 22.525835 36.416016 29.412109 36.416016 29.412109 C 36.416016 29.412109 36.630415 30.425753 38.095703 29.779297 C 39.560999 29.132837 44.892578 26.869141 44.892578 26.869141 C 44.892578 26.869141 45.61838 26.664578 45.369141 25.636719 C 45.119882 24.608857 42.953125 18.503906 42.953125 18.503906 C 42.953125 18.503906 42.552455 17.949079 42.009766 17.914062 z M 56.330078 19.900391 C 56.187097 19.888241 56.022111 19.93421 55.832031 20.064453 C 54.818256 20.759275 50.865234 22.833984 50.865234 22.833984 C 50.865234 22.833984 51.782145 22.318644 52.597656 22.541016 C 50.763415 23.434015 46.052734 25.685547 46.052734 25.685547 C 46.052734 25.685547 45.611107 25.58356 45.798828 26.357422 C 45.971127 27.067652 48.252948 32.350628 48.658203 33.287109 C 48.405117 33.274899 48.054607 33.347102 48.091797 33.859375 C 48.149257 34.650918 49.300781 38.052734 49.300781 38.052734 C 49.300781 38.052734 50.857574 38.007402 51.794922 37.15625 C 52.732282 36.305083 53.699827 35.060211 53.185547 34.820312 C 52.929835 34.701042 51.869461 34.330921 50.869141 33.988281 C 52.487573 33.16218 57.212891 30.814453 57.212891 30.814453 C 57.212891 30.814453 57.926962 30.567909 57.617188 29.556641 C 57.354883 28.700312 55.740835 24.863835 55.179688 23.533203 C 56.212199 23.933563 57.464844 24.419922 57.464844 24.419922 C 57.464844 24.419922 57.963887 22.836998 57.609375 22.126953 C 57.254854 21.416907 57.152344 21.091797 57.152344 21.091797 C 57.152344 21.091797 56.949527 19.953952 56.330078 19.900391 z M 13.607422 21.259766 C 13.511972 21.252966 13.401656 21.273458 13.273438 21.330078 C 12.589635 21.631759 10.494141 22.4375 10.494141 22.4375 C 10.494141 22.4375 9.6822902 22.446763 9.9882812 23.537109 C 10.294275 24.627463 11.426924 26.929533 11.720703 27.529297 C 12.014484 28.129063 14.794922 30.664062 14.794922 30.664062 L 16.267578 30.101562 C 16.267578 30.101562 17.214734 30.063161 16.75 28.546875 C 16.285267 27.030587 14.146484 21.789063 14.146484 21.789062 C 14.146484 21.789062 14.021326 21.286613 13.607422 21.259766 z M 33.050781 22.208984 C 32.74794 22.201184 32.464844 22.373047 32.464844 22.373047 C 32.464844 22.373047 28.045335 24.789383 26.789062 25.314453 C 25.532789 25.839521 25.980469 26.984375 25.980469 26.984375 C 25.980469 26.984375 27.169858 30.805968 27.712891 32.433594 C 28.255913 34.061214 29.214844 33.259766 29.214844 33.259766 C 29.214844 33.259766 34.865034 30.590846 35.611328 30.232422 C 36.357619 29.873996 36.021484 29.177734 36.021484 29.177734 C 36.021484 29.177734 33.969851 23.605823 33.666016 22.71875 C 33.533088 22.330656 33.286341 22.214988 33.050781 22.208984 z M 25.068359 26.474609 C 24.917068 26.463369 24.727083 26.50942 24.490234 26.650391 C 23.542821 27.214249 19.755859 29.146484 19.755859 29.146484 C 19.755859 29.146484 17.970185 29.264754 18.601562 31.291016 C 19.232938 33.317287 20.371094 35.498047 20.371094 35.498047 C 20.371094 35.498047 20.966612 37.510783 22.978516 36.185547 C 24.990421 34.860308 26.685547 34.142578 26.685547 34.142578 C 26.685547 34.142578 27.760439 33.66826 27.621094 33.087891 L 25.630859 27.050781 C 25.630859 27.050781 25.522101 26.508323 25.068359 26.474609 z M 44.599609 27.382812 C 44.485048 27.387213 44.358458 27.410001 44.21875 27.457031 C 43.101098 27.833409 37.777344 30.183594 37.777344 30.183594 C 37.777344 30.183594 36.697563 30.249546 37.208984 31.541016 C 37.720405 32.832489 39.863281 37.955078 39.863281 37.955078 C 39.863281 37.955078 39.872834 38.768862 40.849609 38.337891 C 40.874599 38.326961 40.932373 38.297273 40.962891 38.283203 C 40.860147 38.339913 40.730759 38.410388 40.689453 38.4375 C 40.146442 38.793777 40.225895 39.10916 40.414062 39.667969 C 40.602249 40.226794 40.827335 40.273773 41.419922 40.625 C 42.012518 40.976236 45.01522 40.438354 45.763672 40.283203 C 46.512114 40.12805 48.023357 39.256688 48.601562 38.914062 C 49.17978 38.571444 48.919922 37.783203 48.919922 37.783203 C 48.919922 37.783203 48.284082 36.078467 48.080078 35.351562 C 47.876084 34.62466 47.550781 34.943359 47.550781 34.943359 C 47.550781 34.943359 47.446838 34.996377 47.443359 34.998047 C 47.635066 34.857465 47.92154 34.522059 47.748047 33.806641 C 47.498807 32.778791 45.615234 28.242187 45.615234 28.242188 C 45.615234 28.242188 45.40169 27.352843 44.599609 27.382812 z M 17.357422 30.464844 C 17.193914 30.466944 16.995923 30.510198 16.757812 30.615234 C 15.487894 31.175498 15.314453 31.310547 15.314453 31.310547 C 15.314453 31.310547 16.456025 33.170161 17.099609 33.703125 C 17.741045 34.234313 19.907395 35.476079 19.921875 35.484375 C 19.900335 35.454915 19.793032 35.24517 19.269531 34.058594 C 18.53688 32.397928 18.138672 31.232422 18.138672 31.232422 C 18.138672 31.232422 18.065959 30.455602 17.357422 30.464844 z M 35.958984 30.496094 C 35.814319 30.508304 35.641267 30.566947 35.433594 30.691406 C 34.326007 31.355099 29.839844 33.421875 29.839844 33.421875 C 29.839844 33.421875 28.826472 33.63583 29.052734 35.140625 C 29.278997 36.645426 30.291016 39.466797 30.291016 39.466797 C 30.291016 39.466797 30.235906 40.335449 31.380859 39.888672 C 32.525793 39.4419 38.128906 37.525391 38.128906 37.525391 C 38.128906 37.525391 38.989919 37.494649 38.527344 36.181641 L 36.673828 31.253906 C 36.673828 31.253906 36.585889 30.443359 35.958984 30.496094 z M 28.078125 33.953125 C 27.934448 33.946525 27.742225 34.004048 27.486328 34.167969 C 26.462778 34.823764 22.914063 36.767578 22.914062 36.767578 C 22.914062 36.767578 24.891374 38.668783 25.996094 39.056641 C 27.100815 39.444513 29.60547 39.767574 29.605469 39.767578 C 29.605469 39.767578 30.147541 39.937684 29.753906 39.177734 C 29.360283 38.417792 28.505859 34.564453 28.505859 34.564453 C 28.505859 34.564453 28.50918 33.97221 28.078125 33.953125 z M 38.664062 37.886719 C 38.532843 37.877719 38.376038 37.904514 38.189453 37.994141 C 37.443164 38.352566 31.558594 40.160156 31.558594 40.160156 C 31.558594 40.160156 34.037171 41.080463 36.470703 41.173828 C 38.904247 41.267198 39.972656 40.912109 39.972656 40.912109 C 39.972656 40.912109 40.567406 40.738484 40.208984 39.992188 L 39.214844 38.271484 C 39.214844 38.271484 39.057695 37.914088 38.664062 37.886719 z "
       inkscape:radius="1.0935365"
       sodipodi:type="inkscape:offset"
       transform="translate(5.2795861e-7,240)"
       inkscape:href="#path5392" />
    <path
       inkscape:connector-curvature="0"
       id="path10105"
       d="m 29.611991,240.93132 c -0.841951,0.003 -1.857786,0.38441 -1.857786,0.38441 0,0 0.243129,0.41799 0.722943,1.3733 0.479818,0.95531 1.313559,0.26641 1.313559,0.26641 l 2.621919,-1.33178 c 0,0 -1.576191,-0.52986 -2.453929,-0.66777 -0.109691,-0.0175 -0.22643,-0.025 -0.346702,-0.0246 z m -4.116291,0.41444 c -1.058654,-0.0107 -2.339319,0.029 -3.227474,0.23122 -1.776307,0.4044 -3.574674,2.01507 -3.574674,2.01507 l 0.808791,3.55235 c 0,0 -0.134035,1.28406 1.3701,0.32875 1.504078,-0.95532 4.009634,-1.36044 4.205005,-1.44664 0.195371,-0.0862 2.210291,-0.4787 2.210291,-0.4787 0,0 1.213749,0.1064 0.768413,-1.56435 -0.445342,-1.67071 -0.665433,-2.56575 -0.665433,-2.56575 0,0 -0.836356,-0.0613 -1.895019,-0.0719 z m 10.068703,0.47134 c -0.746552,-0.0276 -1.556715,0.1821 -1.556715,0.1821 0,0 -2.708036,1.13647 -3.915464,1.63998 -1.207429,0.50352 -0.90917,1.51004 -0.90917,1.51004 0,0 0.664274,3.82041 1.240335,5.2584 0.576069,1.438 1.597818,0.57864 1.597818,0.57864 0,0 5.025033,-2.10004 6.037088,-2.51737 1.012056,-0.41732 0.621857,-1.49976 0.621857,-1.49976 l -0.87559,-3.90252 c 0,0 -0.737426,-0.8122 -1.546928,-1.12609 -0.20237,-0.0785 -0.444383,-0.11419 -0.693235,-0.12338 z m 2.752427,1.28605 0.924095,3.88116 c 0,0 0.28485,1.04145 1.351499,0.48334 1.066645,-0.5581 3.127142,-1.90487 3.498498,-1.92282 0.37135,-0.018 -1.522072,-1.39989 -2.957199,-1.87539 -1.43513,-0.47551 -2.816893,-0.56629 -2.816893,-0.56629 z m -20.307546,0.79041 c 0,0 -3.602116,2.08486 -4.387195,2.75216 -0.785072,0.66729 -2.38119,3.53078 -2.372568,4.34388 0.0045,0.42283 0.187319,0.52835 0.43804,0.52508 -0.0685,0.0721 -0.119416,0.22236 -0.07634,0.54722 0.09705,0.73171 2.04994,7.18877 2.04994,7.18877 0,0 0.152496,0.94765 1.443377,0.37877 1.290883,-0.56886 5.985006,-2.55732 5.985006,-2.55732 0,0 0.636752,-0.17407 0.454289,-1.1352 -0.182461,-0.96114 -1.862036,-6.68373 -1.862036,-6.68373 0,0 -0.496481,-0.79591 -1.141921,-0.51148 -0.272643,0.12015 -1.538705,0.63825 -2.867702,1.17987 1.238667,-0.62636 2.462147,-1.27582 2.861693,-1.5331 0.863367,-0.55595 0.430737,-1.00713 0.430737,-1.00713 z m 10.294308,1.93185 c -0.236764,-0.0159 -0.437295,0.10857 -0.437295,0.10857 0,0 -5.117699,1.29491 -6.674932,1.86524 -1.557232,0.57032 -0.98535,1.60227 -0.98535,1.60227 l 1.924978,5.68558 c -0.0139,0.67381 0.601139,0.36622 0.641419,0.32963 0,0 5.566217,-2.65942 6.646512,-3.25273 1.080294,-0.5933 0.7452,-1.08778 0.7452,-1.08778 0,0 -0.911911,-3.39034 -1.204258,-4.51588 -0.146171,-0.56278 -0.419516,-0.71901 -0.656276,-0.7349 z m 15.731251,0.43146 c -0.168451,-0.005 -0.326476,-2.8e-4 -0.469133,0.0152 -1.141354,0.12427 -2.277557,1.38438 -2.277557,1.38438 -1.144938,0.44677 -1.080643,1.84807 -1.080643,1.84807 0,0 1.494723,5.43805 1.841648,6.42282 0.346936,0.98475 1.370099,0.32927 1.370099,0.32927 0,0 5.895858,-3.30131 6.759222,-3.85727 0.863383,-0.55595 0.601417,-0.81952 0.649539,-1.57014 0.04807,-0.75061 -2.796289,-3.23038 -3.396767,-3.66565 -0.525442,-0.38086 -2.217182,-0.87299 -3.396402,-0.90677 z m -5.424424,2.53719 c -0.485204,0.0245 -0.903635,0.26723 -0.903635,0.26723 0,0 -4.104573,1.60715 -5.581359,2.49208 -1.476781,0.88492 -0.842882,1.85967 -0.842882,1.85967 0,0 1.717522,5.28124 2.101806,6.48293 0.384288,1.20168 1.274797,0.57558 1.274797,0.57558 0,0 5.69531,-2.36714 6.55294,-2.80386 0.857624,-0.43672 0.538166,-1.49172 0.538166,-1.49172 0,0 -1.296345,-4.59174 -1.833628,-6.3386 -0.268641,-0.87343 -0.821007,-1.06773 -1.306205,-1.04331 z m 13.110384,2.96869 c -0.257512,0.0116 -0.489295,0.1138 -0.387336,0.47723 0.203995,0.7269 2.761885,7.91329 2.761885,7.91329 0,0 -0.01506,0.56071 0.90514,0.0673 0.920115,-0.49347 1.468587,-0.96875 1.468587,-0.96875 0,0 -0.188338,-2.54303 -1.349088,-4.24822 -1.16075,-1.70519 -2.858684,-3.17341 -2.858684,-3.17341 0,0 -0.283056,-0.0789 -0.540557,-0.0673 z m -1.156596,0.92858 c -0.180409,1.8e-4 -0.408577,0.0534 -0.69625,0.19493 -1.150684,0.566 -6.675009,3.84921 -6.675009,3.84921 0,0 -0.407695,0.53041 -0.03565,1.24148 0,0 0.929556,3.03233 1.209691,3.66729 0.280136,0.63496 1.16782,3.04417 1.16782,3.04417 0,0 0.0088,0.81318 0.907362,0.27087 0.89857,-0.5423 6.845155,-3.6622 6.845155,-3.6622 0,0 0.756128,-0.0711 0.363937,-1.35678 -0.39218,-1.28572 -2.43404,-6.7738 -2.43404,-6.7738 0,0 -0.111831,-0.47598 -0.653028,-0.47517 z m -20.858853,0.15883 c -0.125523,-6.4e-4 -0.256872,0.0269 -0.390435,0.0955 -0.712339,0.36581 -7.363378,3.54096 -7.363378,3.54096 0,0 -0.443049,-0.10275 -0.255648,0.6712 0.187401,0.77395 3.101311,7.49997 3.101311,7.49997 0,0 0.273194,0.99957 1.697876,0.26797 1.424688,-0.73162 6.613786,-3.30654 6.613786,-3.30654 0,0 0.713887,-0.24633 0.404551,-1.25772 -0.309337,-1.0114 -2.833074,-6.97702 -2.833074,-6.97702 0,0 -0.431172,-0.5313 -0.974995,-0.53431 z m -18.854002,0.6437 c -0.364511,-0.0286 -0.715061,0.26227 -0.715061,0.26227 0,0 -1.5084627,2.53286 -1.3992797,4.23519 0.109178,1.70232 1.224422,4.36131 1.224422,4.36131 0,0 1.4902867,-0.92025 2.8557397,-1.72688 1.365452,-0.80663 0.48914,-1.47037 0.48914,-1.47037 0,0 -1.438615,-4.12079 -1.855939,-5.13284 -0.156498,-0.37953 -0.380322,-0.51149 -0.599017,-0.52868 z m 10.010792,4.17493 c -1.525506,-0.0914 -5.436003,2.38957 -5.436003,2.38957 0,0 -1.346501,0.652 -0.637556,2.06054 0.708948,1.40855 2.588257,6.06477 2.588257,6.06477 0,0 0.177176,1.52651 2.201292,0.69186 2.024113,-0.83466 4.546252,-2.32685 4.546252,-2.32685 0,0 0.453038,-0.2288 -0.197732,-2.10065 -0.65077,-1.87183 -2.424932,-5.59681 -2.424932,-5.59681 0,0 -0.292801,-1.12566 -0.500026,-1.16554 -0.04398,-0.009 -0.0903,-0.0142 -0.13954,-0.0168 z m 21.148479,0.24485 c -0.125251,-0.008 -0.258046,0.012 -0.395416,0.0726 -0.732635,0.32324 -7.559164,3.10128 -7.559164,3.10128 0,0 -0.435965,-0.12833 -0.294454,0.65525 0.141502,0.78365 2.654089,7.66921 2.654089,7.66921 0,0 0.213988,1.01396 1.679276,0.36751 1.465296,-0.64646 6.797017,-2.91113 6.797017,-2.91113 0,0 0.726783,-0.20424 0.477544,-1.2321 -0.249259,-1.02786 -2.417158,-7.1315 -2.417158,-7.1315 0,0 -0.399045,-0.5561 -0.941734,-0.59111 z m 14.319942,1.98711 c -0.142981,-0.0122 -0.307994,0.0333 -0.498074,0.16356 -1.013775,0.69482 -4.967495,2.769 -4.967495,2.769 0,0 0.917283,-0.51448 1.732794,-0.2921 -1.834241,0.89299 -6.544748,3.14514 -6.544748,3.14514 0,0 -0.442863,-0.10213 -0.255142,0.67173 0.172299,0.71023 2.455288,5.99249 2.860543,6.92897 -0.253086,-0.0122 -0.602998,0.0594 -0.565808,0.57167 0.05746,0.79154 1.208348,4.19339 1.208348,4.19339 0,0 1.555779,-0.0445 2.493127,-0.89568 0.93736,-0.85117 1.905458,-2.09552 1.391178,-2.33542 -0.255712,-0.11927 -1.315462,-0.49002 -2.315782,-0.83266 1.618432,-0.8261 6.343494,-3.17406 6.343494,-3.17406 0,0 0.713284,-0.24646 0.40351,-1.25773 -0.262305,-0.85633 -1.875839,-4.69271 -2.436987,-6.02334 1.032512,0.40036 2.285143,0.88587 2.285143,0.88587 0,0 0.498783,-1.58161 0.144271,-2.29166 -0.354521,-0.71004 -0.457111,-1.03631 -0.457111,-1.03631 0,0 -0.201832,-1.13682 -0.821281,-1.19038 z m -42.722682,1.35884 c -0.09545,-0.007 -0.206394,0.0129 -0.334612,0.0695 -0.683802,0.30168 -2.778217,1.10906 -2.778217,1.10906 0,0 -0.8134297,0.009 -0.5074387,1.09885 0.3059937,1.09035 1.4384467,3.39188 1.7322257,3.99165 0.293781,0.59976 3.075633,3.13597 3.075633,3.13597 l 1.473065,-0.56255 c 0,0 0.945843,-0.0383 0.481109,-1.5546 -0.464733,-1.51629 -2.602468,-6.75825 -2.602468,-6.75825 0,0 -0.125382,-0.50283 -0.539286,-0.52967 z m 19.443463,0.95012 c -0.302841,-0.008 -0.586878,0.16376 -0.586878,0.16376 0,0 -4.419192,2.41642 -5.675465,2.94149 -1.256273,0.52506 -0.809405,1.6699 -0.809405,1.6699 0,0 1.190458,3.8219 1.733491,5.44953 0.543022,1.62762 1.501468,0.82547 1.501468,0.82547 0,0 5.650343,-2.66816 6.396637,-3.02659 0.746291,-0.35842 0.409385,-1.05563 0.409385,-1.05563 0,0 -2.050087,-5.57227 -2.353922,-6.45935 -0.132928,-0.38809 -0.379758,-0.50256 -0.615318,-0.50857 z m -7.983608,4.26532 c -0.151291,-0.0112 -0.340785,0.0338 -0.577634,0.17475 -0.947413,0.56386 -4.733796,2.49699 -4.733796,2.49699 0,0 -1.786488,0.11715 -1.155111,2.14341 0.631376,2.02627 1.769643,4.20858 1.769643,4.20858 0,0 0.596093,2.01264 2.607997,0.6874 2.011905,-1.32524 3.707393,-2.04446 3.707393,-2.04446 0,0 1.074844,-0.47392 0.935499,-1.05429 l -1.991779,-6.03575 c 0,0 -0.108384,-0.543 -0.562126,-0.57671 z m 19.531106,0.90785 c -0.114561,0.004 -0.241167,0.0273 -0.380875,0.0743 -1.117652,0.37638 -6.441047,2.72544 -6.441047,2.72544 0,0 -1.078972,0.0675 -0.567551,1.35901 0.511421,1.29147 2.654554,6.41389 2.654554,6.41389 0,0 0.009,0.81321 0.985775,0.38224 0.02499,-0.0109 0.08323,-0.0399 0.113748,-0.054 -0.102744,0.0567 -0.232808,0.12663 -0.274114,0.15374 -0.543011,0.35628 -0.462618,0.67106 -0.27445,1.22987 0.188186,0.55882 0.413207,0.60561 1.005794,0.95684 0.592596,0.35123 3.594111,-0.18548 4.342563,-0.34063 0.748442,-0.15515 2.260632,-1.02657 2.838838,-1.3692 0.578217,-0.34261 0.317147,-1.13181 0.317147,-1.13181 0,0 -0.634626,-1.70389 -0.83863,-2.4308 -0.203994,-0.7269 -0.530047,-0.40805 -0.530047,-0.40805 0,0 -0.103499,0.0518 -0.106978,0.0535 0.191707,-0.14058 0.478728,-0.47573 0.305235,-1.19114 -0.24924,-1.02785 -2.134384,-5.56447 -2.134384,-5.56447 0,0 -0.213461,-0.88875 -1.015542,-0.85878 z m -8.639564,3.11337 c -0.144665,0.0122 -0.317698,0.0705 -0.525371,0.19499 -1.107587,0.66369 -5.593478,2.72983 -5.593478,2.72983 0,0 -1.014317,0.21413 -0.788055,1.71892 0.226263,1.5048 1.237738,4.32612 1.237738,4.32612 0,0 -0.05413,0.87 1.090823,0.42322 1.144934,-0.44677 6.747168,-2.36366 6.747168,-2.36366 0,0 0.861699,-0.0305 0.399124,-1.34346 l -1.853708,-4.92923 c 0,0 -0.08744,-0.80936 -0.714345,-0.75663 z m -18.602469,-0.0317 c -0.163508,0.002 -0.361115,0.0461 -0.599226,0.15118 -1.269919,0.56026 -1.443674,0.69527 -1.443674,0.69527 0,0 1.141173,1.85953 1.784757,2.39249 0.641436,0.53119 2.808053,1.77285 2.822533,1.78115 -0.02154,-0.0295 -0.128839,-0.23904 -0.65234,-1.42561 -0.732651,-1.66067 -1.13091,-2.82725 -1.13091,-2.82725 0,0 -0.0726,-0.77648 -0.781137,-0.76723 z m 2.56439,5.02009 c 0.0086,0.0118 0.008,0.005 0.008,0.005 0,0 -0.0077,-0.005 -0.008,-0.005 z m 8.156127,-1.53128 c -0.143677,-0.007 -0.335626,0.0512 -0.591523,0.21513 -1.02355,0.6558 -4.57117,2.5998 -4.57117,2.5998 0,0 1.976335,1.90004 3.081055,2.2879 1.104721,0.38787 3.610669,0.71196 3.610668,0.71196 0,0 0.541522,0.16927 0.147887,-0.59068 -0.393623,-0.75995 -1.247483,-4.61343 -1.247483,-4.61343 0,0 0.0016,-0.59159 -0.429455,-0.61068 z m 10.586985,3.93316 c -0.13122,-0.009 -0.288631,0.0186 -0.475216,0.10822 -0.746289,0.35842 -6.629994,2.16637 -6.629994,2.16637 0,0 2.477381,0.91966 4.910913,1.01303 2.433544,0.0934 3.502505,-0.26133 3.502505,-0.26133 0,0 0.594106,-0.17439 0.235684,-0.92069 l -0.992843,-1.72123 c 0,0 -0.157408,-0.35698 -0.551041,-0.38435 z"
       style="display:inline;fill:#e39c3e;fill-opacity:1;fill-rule:evenodd;stroke:#000000;stroke-width:0.15099631px;stroke-linecap:butt;stroke-linejoin:miter;stroke-opacity:1" />
    <path
       inkscape:connector-curvature="0"
       id="path10109"
       d="m 66.815816,262.33041 c 0,0 14.892631,-10.34979 21.540954,-16.47371 6.648312,-6.12392 7.873948,-7.72628 7.873948,-7.72628 0,0 -8.909538,17.66924 -14.865063,21.64775 -5.955529,3.97856 -10.280687,6.22409 -10.280687,6.22409 0,0 10.105455,-1.92182 16.829685,-1.85816 6.724267,0.0636 10.464356,2.78901 10.464356,2.78901 0,0 -12.533811,2.70576 -16.435144,2.80333 -3.901336,0.0975 -14.122187,6.7e-4 -14.122187,6.7e-4 0,0 10.203041,1.97954 14.489997,3.76856 4.286963,1.78905 11.859665,11.67903 11.859665,11.67903 0,0 -12.60084,-4.42317 -18.496521,-6.76545 -5.895698,-2.34222 -8.304965,-3.57551 -8.304965,-3.57551 0,0 16.207747,7.01274 17.393915,9.57939 1.186183,2.5667 2.066474,9.03086 2.066474,9.03086 0,0 -3.558532,-7.69999 -8.110658,-9.89503 -4.552106,-2.19503 -17.972588,-5.281 -17.972588,-5.281 0,0 -2.951833,-14.9571 6.068815,-15.9477 z"
       style="display:inline;fill:#88aa00;stroke:#000000;stroke-width:0.2662743;stroke-linecap:butt;stroke-linejoin:round;stroke-miterlimit:4;stroke-dasharray:none;stroke-opacity:1" />
    <path
       style="fill:#88aa00;stroke:#000000;stroke-width:0.26590514px;stroke-linecap:butt;stroke-linejoin:miter;stroke-opacity:1"
       d="m 66.815816,262.33041 c 0,0 14.892631,-10.34979 21.540954,-16.47371 6.648312,-6.12392 7.873948,-7.72628 7.873948,-7.72628 0,0 -8.909538,17.66924 -14.865063,21.64775 -5.955529,3.97856 -10.280687,6.22409 -10.280687,6.22409 0,0 10.105455,-1.92182 16.829685,-1.85816 6.724267,0.0636 10.464356,2.78901 10.464356,2.78901 0,0 -12.533811,2.70576 -16.435144,2.80333 -3.901336,0.0975 -14.122187,6.7e-4 -14.122187,6.7e-4 0,0 10.203041,1.97954 14.489997,3.76856 4.286963,1.78905 11.859665,11.67903 11.859665,11.67903 0,0 -12.60084,-4.42317 -18.496521,-6.76545 -5.895698,-2.34222 -8.304965,-3.57551 -8.304965,-3.57551 0,0 16.207747,7.01274 17.393915,9.57939 1.186183,2.5667 2.066474,9.03086 2.066474,9.03086 0,0 -3.558532,-7.69999 -8.110658,-9.89503 -4.552106,-2.19503 -17.972588,-5.281 -17.972588,-5.281 0,0 -2.951833,-14.9571 6.068815,-15.9477 z"
       id="path4512"
       inkscape:connector-curvature="0" />
    <path
       style="fill:none;stroke:#000000;stroke-width:0.26590514px;stroke-linecap:butt;stroke-linejoin:miter;stroke-opacity:1"
       d="m 67.98671,266.5109 c 0,0 6.376814,-5.85751 8.857364,-12.15539"
       id="path4532"
       inkscape:connector-curvature="0" />
    <path
       style="fill:none;stroke:#000000;stroke-width:0.26590514px;stroke-linecap:butt;stroke-linejoin:miter;stroke-opacity:1"
       d="m 65.223657,260.02889 c 0,0 4.230128,-6.41578 4.787155,-8.42797"
       id="path4534"
       inkscape:connector-curvature="0" />
    <path
       style="fill:#a1fb00;fill-opacity:1;stroke:#000000;stroke-width:0.26590514px;stroke-linecap:butt;stroke-linejoin:miter;stroke-opacity:1"
       d="m 53.337612,279.55291 c 0,0 3.336709,2.72145 4.810898,3.27347 1.474237,0.55195 3.858038,4.47494 3.858038,4.47494 0,0 1.114076,-4.02438 -0.612589,-6.32715 -1.726651,-2.30282 -5.875295,-4.49407 -5.875295,-4.49407 0,0 5.497325,1.80051 8.722426,2.10001 3.225078,0.29968 7.807756,-0.73306 7.807756,-0.73306 0,0 -3.732451,-3.53226 -7.086938,-4.37101 -3.354514,-0.8387 -5.908445,-0.99738 -5.908445,-0.99738 0,0 2.014742,0.288 7.132782,-0.47049 5.118072,-0.75849 6.743345,-1.9536 6.743345,-1.9536 0,0 -3.752845,-1.3805 -6.037815,-1.5366 -2.284962,-0.15608 -7.533708,0.19765 -7.533708,0.19765 0,0 3.234009,-0.64185 5.666196,-1.82931 2.432175,-1.18744 5.450701,-7.48026 5.450701,-7.48026 0,0 -3.633639,0.23462 -7.146798,1.94983 -3.51317,1.71522 -6.490932,3.70448 -6.490932,3.70448 0,0 5.689118,-4.25006 6.233408,-4.9174 0.54431,-0.66734 3.949715,-5.20797 3.962452,-6.55283 0.01275,-1.34487 -5.418874,4.11812 -5.418874,4.11812 l -9.483947,7.30754 c 0,0 -1.509884,3.21364 -1.535349,5.90333 -0.02546,2.6897 2.742723,8.63375 2.742723,8.63375 z"
       id="path4508"
       inkscape:connector-curvature="0" />
    <path
       style="fill:#a1fb00;fill-opacity:1;stroke:#000000;stroke-width:0.26590514px;stroke-linecap:butt;stroke-linejoin:miter;stroke-opacity:1"
       d="m 56.071042,260.74923 c 0,0 -5.412495,3.44567 -6.105291,5.59107 -2.124296,4.18292 0.17476,9.95445 0.17476,9.95445 0,0 0.511199,2.82927 1.311746,3.50933 0.800521,0.68012 3.074055,2.04655 3.074055,2.04655 0,0 0.03439,-3.63108 -0.498463,-4.17411 -0.533049,-0.54286 -2.250592,-3.78726 -2.250592,-3.78726 0,0 1.060596,1.62402 4.148654,2.19124 3.08807,0.56722 7.801396,-0.0606 7.801396,-0.0606 0,0 -2.259515,-2.8458 -6.01236,-4.22631 -3.752847,-1.38048 -6.173565,-1.40338 -6.173565,-1.40338 0,0 3.490239,0.70552 7.534983,-0.3322 4.04473,-1.03769 4.457082,-1.97527 4.457082,-1.97527 0,0 -2.539928,-1.63799 -6.442549,-1.40594 -3.902603,0.23206 -4.846537,0.49213 -4.846537,0.49213 0,0 3.367211,-0.50615 5.132063,-2.23789 1.764853,-1.73175 2.611231,-5.89315 2.611231,-5.89315 z"
       id="path4506"
       inkscape:connector-curvature="0"
       sodipodi:nodetypes="cccccscscscscscscc" />
    <path
       style="fill:none;stroke:#000000;stroke-width:0.26590514px;stroke-linecap:butt;stroke-linejoin:miter;stroke-opacity:1"
       d="m 50.749743,268.76871 9.282009,-0.18116"
       id="path4514"
       inkscape:connector-curvature="0" />
    <path
       style="fill:none;stroke:#000000;stroke-width:0.26590514px;stroke-linecap:butt;stroke-linejoin:miter;stroke-opacity:1"
       d="m 51.851081,266.08916 5.418865,-4.11811"
       id="path4516"
       inkscape:connector-curvature="0" />
    <path
       style="fill:none;stroke:#000000;stroke-width:0.26590514px;stroke-linecap:butt;stroke-linejoin:miter;stroke-opacity:1"
       d="m 51.521016,272.54189 8.585384,2.36772"
       id="path4518"
       inkscape:connector-curvature="0" />
    <path
       style="fill:none;stroke:#000000;stroke-width:0.26590514px;stroke-linecap:butt;stroke-linejoin:miter;stroke-opacity:1"
       d="m 51.218931,276.03593 c 0,0 1.589654,2.5705 1.579462,3.64638"
       id="path4520"
       inkscape:connector-curvature="0" />
    <path
       style="fill:none;stroke:#000000;stroke-width:0.26590514px;stroke-linecap:butt;stroke-linejoin:miter;stroke-opacity:1"
       d="m 54.961604,278.49232 c 0,0 5.230905,1.529 6.131548,5.8414"
       id="path4522"
       inkscape:connector-curvature="0" />
    <path
       style="fill:none;stroke:#000000;stroke-width:0.26590514px;stroke-linecap:butt;stroke-linejoin:miter;stroke-opacity:1"
       d="m 63.540632,281.53246 c 0,0 6.044181,0.86419 8.018158,5.45577"
       id="path4524"
       inkscape:connector-curvature="0" />
    <path
       style="fill:none;stroke:#000000;stroke-width:0.26590514px;stroke-linecap:butt;stroke-linejoin:miter;stroke-opacity:1"
       d="m 63.857966,276.42462 5.777779,0.59253"
       id="path4528"
       inkscape:connector-curvature="0" />
    <path
       style="fill:none;stroke:#000000;stroke-width:0.26590514px;stroke-linecap:butt;stroke-linejoin:miter;stroke-opacity:1"
       d="m 73.055126,270.99726 c 0,0 10.23358,-1.24805 11.31838,-2.17931"
       id="path4530"
       inkscape:connector-curvature="0" />
    <path
       style="fill:none;stroke:#000000;stroke-width:0.26590514px;stroke-linecap:butt;stroke-linejoin:miter;stroke-opacity:1"
       d="m 58.713626,265.75065 8.107291,-3.95818"
       id="path4536"
       inkscape:connector-curvature="0" />
    <path
       style="fill:none;stroke:#000000;stroke-width:0.26590514px;stroke-linecap:butt;stroke-linejoin:miter;stroke-opacity:1"
       d="m 60.24642,260.11628 4.606869,-3.58781"
       id="path4538"
       inkscape:connector-curvature="0" />
    <path
       style="fill:none;stroke:#000000;stroke-width:0.26590514px;stroke-linecap:butt;stroke-linejoin:miter;stroke-opacity:1"
       d="m 59.601563,271.4079 8.354601,-1.66936"
       id="path4540"
       inkscape:connector-curvature="0" />
    <path
       style="fill:none;stroke:#000000;stroke-width:0.26590514px;stroke-linecap:butt;stroke-linejoin:miter;stroke-opacity:1"
       d="m 71.332295,268.29102 c 0,0 6.483285,-2.89755 22.074615,-1.80849"
       id="path4542"
       inkscape:connector-curvature="0" />
    <path
       style="fill:none;stroke:#000000;stroke-width:0.26590514px;stroke-linecap:butt;stroke-linejoin:miter;stroke-opacity:1"
       d="m 51.876523,274.05833 -2.758106,-3.45577"
       id="path8023"
       inkscape:connector-curvature="0" />
    <path
       style="fill:none;stroke:#000000;stroke-width:0.26590514px;stroke-linecap:butt;stroke-linejoin:miter;stroke-opacity:1"
       d="m 52.079318,270.39524 -3.125179,-0.19773"
       id="path8025"
       inkscape:connector-curvature="0" />
    <path
       style="fill:none;stroke:#000000;stroke-width:0.26590514px;stroke-linecap:butt;stroke-linejoin:miter;stroke-opacity:1"
       d="m 52.244995,267.10163 c 0,0 -2.15813,0.65206 -3.005649,1.38375"
       id="path8027"
       inkscape:connector-curvature="0" />
    <path
       style="fill:none;stroke:none;stroke-width:0.26590514px;stroke-linecap:butt;stroke-linejoin:miter;stroke-opacity:1"
       d="m 4.823584,275.395 c 0,0 8.864926,8.35553 16.380196,10.10783 7.515235,1.75236 29.975478,1.83048 33.793639,3.41337"
       id="path8115"
       inkscape:connector-curvature="0" />
    <flowRoot
       xml:space="preserve"
       id="flowRoot7772"
       style="font-style:normal;font-weight:normal;font-size:40px;line-height:125%;font-family:sans-serif;letter-spacing:0px;word-spacing:0px;fill:#000000;fill-opacity:1;stroke:none;stroke-width:1px;stroke-linecap:butt;stroke-linejoin:miter;stroke-opacity:1"
       transform="matrix(0.28222221,0,0,0.28222221,948.59456,-56.312098)"><flowRegion
         id="flowRegion7774"><rect
           id="rect7776"
           width="522.14288"
           height="177.14285"
           x="1247.8572"
           y="19.66325" /></flowRegion><flowPara
         id="flowPara7778" /></flowRoot>    <path
       inkscape:connector-curvature="0"
       id="path10107"
       d="m 96.225247,238.05519 c 0,0 -1.225752,1.60251 -7.874074,7.72642 -2.547168,2.34626 -6.303082,5.31074 -9.969408,8.0779 1.595474,-6.07024 2.475111,-12.04931 2.475111,-12.04931 0,0 -3.211224,12.47806 -8.758238,15.92252 -0.956157,0.59371 -1.935963,1.17977 -2.910002,1.75544 -0.550525,0.0861 -1.241641,0.21623 -2.024782,0.41344 1.224022,-1.06127 2.306505,-2.22054 2.928684,-3.39853 2.191199,-4.14864 0.917779,-11.69273 0.917779,-11.69273 0,0 -2.080715,6.81444 -4.804671,10.69771 0.479174,-0.83333 0.817809,-1.57066 0.821822,-1.99284 0.01273,-1.34485 -5.418624,4.11822 -5.418624,4.11822 l -1.854142,1.42832 -3.689304,1.61254 c 0,0 -5.412333,3.44549 -6.105128,5.59087 -0.345351,0.68001 -0.572105,1.40226 -0.712519,2.13463 -0.0035,0.004 -0.0086,0.005 -0.01341,0.01 l 0.01161,-0.004 c -0.721081,3.77119 0.888419,7.81502 0.888419,7.81502 0,0 0.511386,2.8293 1.311968,3.50932 0.800421,0.6802 3.073981,2.04684 3.073981,2.04684 0,0 0.004,-0.62366 -0.02688,-1.38641 1.106807,0.84446 2.734852,2.02013 3.649062,2.36233 1.474226,0.55196 3.858116,4.47453 3.858116,4.47453 0,0 0.736193,-2.66071 0.0832,-4.89321 2.17216,1.05289 4.688309,2.41726 6.248935,3.74304 3.202212,2.72022 6.122511,6.78273 6.122511,6.78273 0,0 -0.58986,-8.74789 -4.738525,-10.93913 -2.221529,-1.1734 -3.518983,-2.23135 -5.604751,-3.10883 3.787044,0.91507 11.063157,2.96694 14.601527,4.67314 4.552116,2.19504 8.1108,9.89547 8.1108,9.89547 0,0 -1.815381,-6.84333 -2.48018,-8.84929 -0.6648,-2.00596 -1.002406,-2.49275 -1.589307,-3.51347 5.585299,2.04646 11.410764,4.09313 11.410764,4.09313 0,0 -7.57292,-9.89011 -11.859872,-11.67916 -0.868595,-0.36248 -3.248183,-1.05927 -4.468439,-1.41933 1.774824,-0.84602 3.19666,-2.16634 8.022996,-2.44659 5.176266,-0.79963 12.512557,-2.70676 12.512557,-2.70676 0,0 -3.740099,-2.72522 -10.46435,-2.78886 -4.795787,-0.0454 -11.252867,0.91177 -14.595729,1.46875 0.426273,-0.40666 0.836439,-0.93755 1.23111,-1.55948 1.779056,-1.04369 3.926909,-2.75114 6.628544,-4.55593 5.955919,-3.97888 15.052604,-21.36757 15.052604,-21.36757 z"
       style="fill:#89aa00;fill-opacity:1;stroke:#000000;stroke-width:1.17082;stroke-linecap:round;stroke-linejoin:round;stroke-miterlimit:4;stroke-dasharray:none;stroke-opacity:1"
       sodipodi:nodetypes="ccccccccccccccccccccccccccccccczcccccccccccc" />
    <path
       inkscape:connector-curvature="0"
       id="path10161"
       d="m 83.714345,285.64904 c -0.815376,-1.45618 -1.974466,-2.75744 -4.44402,-4.26648"
       style="fill:none;stroke:#000000;stroke-width:0.266;stroke-linecap:round;stroke-linejoin:round;stroke-miterlimit:4;stroke-dasharray:none;stroke-opacity:1"
       sodipodi:nodetypes="cc" />
    <path
       inkscape:connector-curvature="0"
       id="path10111"
       d="m 26.459828,251.93802 c 0.0859,0.0474 0.857028,0.34698 2.420036,1.93991 1.563155,1.59296 1.847963,2.36899 1.89375,2.45584 0.007,-0.012 0.0083,-0.0132 0.0069,10e-4 6.52e-4,0.003 -5.52e-4,9.5e-4 -8.29e-4,0.003 0.0068,-0.002 0.01417,0.001 -0.01038,0.0463 l -0.0542,5.72605 c 0.266061,-0.23944 0.465315,-0.39432 0.749063,-0.67275 4.073445,-3.99702 4.093526,-6.11723 0.09647,-10.19067 -1.998559,-2.0367 -3.528116,-3.05976 -5.066951,-3.07433 l 10e-4,-9.2e-4 c -1.53884,-0.014 -3.087001,0.97933 -5.123727,2.97787 -4.073444,3.99701 -4.093505,6.11721 -0.09647,10.19067 0.281341,0.287 0.481023,0.40453 0.745381,0.65107 l 0.05413,-5.71725 c -0.04583,-0.0896 -7.08e-4,-0.003 -0.0094,-0.0225 -0.007,0.012 -0.0086,0.0131 -0.007,-10e-4 6.76e-4,-0.0127 0.0041,-0.0124 0.007,10e-4 0.04746,-0.0862 0.34691,-0.85645 1.939893,-2.41957 1.593144,-1.56324 2.368749,-1.84798 2.455332,-1.89372 z"
       style="opacity:1;fill:#ffffff;fill-opacity:1;stroke:#000000;stroke-width:0.53169596;stroke-linejoin:round;stroke-miterlimit:4;stroke-dasharray:none;stroke-opacity:1"
       sodipodi:nodetypes="ccccccccccccccccccccc" />
    <path
       style="opacity:1;fill:#ffffff;fill-opacity:1;stroke:#000000;stroke-width:0.53169596;stroke-linejoin:round;stroke-miterlimit:4;stroke-dasharray:none;stroke-opacity:1"
       d="m 41.75906,253.35311 c -1.538843,-0.014 -3.087005,0.97989 -5.12373,2.9784 -4.073447,3.99703 -4.093515,6.11724 -0.09647,10.19068 0.175791,0.17997 0.347588,0.34777 0.516599,0.51179 l 0.02907,-3.07028 9.020101,0.0855 -0.03019,3.19124 c 0.213092,-0.19587 0.430707,-0.40155 0.655094,-0.62169 4.073452,-3.99705 4.093521,-6.11726 0.09649,-10.19067 -1.998568,-2.0367 -3.528136,-3.0603 -5.06695,-3.07488 z m -0.036,3.76687 c 0.0858,0.0474 0.856518,0.34695 2.419568,1.93985 1.563152,1.59298 1.847954,2.36902 1.893732,2.45587 -2.870013,-0.0272 -5.921418,-0.056 -8.708511,-0.0824 0.0118,-0.0214 0.03924,-0.0855 0.09897,-0.19437 0.17888,-0.32625 0.646165,-1.05282 1.840921,-2.22519 1.593146,-1.56326 2.368744,-1.84796 2.455322,-1.89374 z"
       id="path10117"
       inkscape:connector-curvature="0"
       sodipodi:nodetypes="ccccccccccccccccccc" />
    <path
       inkscape:connector-curvature="0"
       id="path10121"
       d="m 57.901177,280.53759 c 0,0 7.235423,2.89298 10.437607,5.61317 3.202218,2.72025 6.122671,6.78284 6.122671,6.78284 0,0 -0.242144,-7.95164 -3.82629,-10.76372 -3.584145,-2.81209 -10.857039,-4.47629 -10.857039,-4.47629 0,0 10.902932,2.56148 14.937458,2.5997 4.034569,0.0381 11.480983,5.53701 11.480983,5.53701 0,0 -4.796809,-8.59514 -11.230691,-10.38379 -6.433882,-1.78866 -15.519196,-1.88785 -15.519196,-1.88785 0,0 13.197236,0.65584 16.027792,0.0101 3.438592,-0.64569 14.69713,-6.3096 14.69713,-6.3096 0,0 -7.453295,0.0165 -12.767478,1.14402 -5.314184,1.12747 -18.321446,0.98264 -18.321446,0.98264 0,0 8.740255,0.21713 13.750555,-3.36673 5.010311,-3.58404 8.029275,-24.13347 8.029275,-24.13347 0,0 -3.211535,12.47778 -8.758525,15.92221 -5.546989,3.44443 -12.035332,6.8799 -12.035332,6.8799 0,0 7.838293,-3.96071 10.029534,-8.10937 2.191211,-4.14866 0.917645,-11.69252 0.917645,-11.69252 0,0 -3.192451,10.46053 -6.846455,12.84692 -3.654006,2.38631 -10.566193,7.96976 -10.566193,7.96976 0,0 -7.88033,8.39872 4.297968,14.83533 z"
       style="fill:#aad400;fill-opacity:1;stroke:#000000;stroke-width:0.266;stroke-linecap:round;stroke-linejoin:round;stroke-miterlimit:4;stroke-dasharray:none;stroke-opacity:1"
       sodipodi:nodetypes="ccczccczccczcccsccccccc" />
    <path
       style="opacity:1;fill:#ffffff;fill-opacity:1;stroke:#000000;stroke-width:0.53200001;stroke-linecap:round;stroke-linejoin:round;stroke-miterlimit:4;stroke-dasharray:none;stroke-opacity:1"
       d="m 57.09939,252.23112 c 0.0858,0.0474 0.841499,0.34393 2.404529,1.93683 1.563165,1.59296 1.847969,2.36898 1.893743,2.45587 l -0.01591,0.46535 -0.0425,5.31093 c 0.266066,-0.23943 0.465319,-0.39429 0.74906,-0.67272 4.073453,-3.99705 4.093508,-6.11724 0.09647,-10.19069 -1.998557,-2.03671 -3.528112,-3.0598 -5.066949,-3.07434 l 8.89e-4,-10e-4 c -1.538819,-0.014 -3.086978,0.97932 -5.123718,2.97788 -4.073462,3.99703 -4.093508,6.11722 -0.09647,10.19067 0.28133,0.28699 0.48103,0.40454 0.745292,0.65115 l 0.05412,-5.71726 c -0.0459,-0.0896 -6.47e-4,-0.003 -0.0093,-0.0225 -0.0074,0.012 -0.0085,0.0131 -0.0069,-10e-4 6.85e-4,-0.0127 0.0044,-0.0123 0.0069,10e-4 0.0475,-0.0861 0.346883,-0.85642 1.939876,-2.41953 1.593161,-1.56326 2.363606,-1.84593 2.450192,-1.8917 z"
       id="path10119"
       inkscape:connector-curvature="0"
       sodipodi:nodetypes="ccccccccccccccccccc" />
    <path
       inkscape:connector-curvature="0"
       id="path10123"
       d="m 64.480981,266.01481 c 0.988973,1.08024 11.256777,-3.818 12.363093,-11.6593"
       style="fill:none;stroke:#000000;stroke-width:0.26590514px;stroke-linecap:round;stroke-linejoin:round;stroke-opacity:1"
       sodipodi:nodetypes="cc" />
    <path
       inkscape:connector-curvature="0"
       id="path10125"
       d="m 65.223657,260.02889 c 0,0 4.230128,-6.41578 4.787155,-8.42797"
       style="fill:none;stroke:#000000;stroke-width:0.26590514px;stroke-linecap:round;stroke-linejoin:round;stroke-opacity:1" />
    <path
       style="opacity:1;fill:#ffffff;fill-opacity:1;stroke:#000000;stroke-width:0.53169596;stroke-linejoin:round;stroke-miterlimit:4;stroke-dasharray:none;stroke-opacity:1"
       d="m 73.030436,253.53897 c -1.538827,-0.014 -3.087,0.97987 -5.123734,2.97836 -4.073433,3.99705 -4.093507,6.11724 -0.09646,10.19069 0.175797,0.17995 0.347603,0.3478 0.516604,0.5118 l 0.02904,-3.07022 9.020143,0.0853 -0.03023,3.19121 c 0.213074,-0.19581 0.430729,-0.40158 0.655082,-0.6217 4.073455,-3.99705 4.093527,-6.11722 0.09647,-10.19066 -1.998549,-2.03669 -3.528116,-3.0603 -5.066939,-3.07487 z m -0.036,3.76687 c 0.0858,0.0474 0.856501,0.347 2.419576,1.93987 1.563163,1.59296 1.847955,2.36901 1.893743,2.45585 -2.870021,-0.0272 -5.92143,-0.056 -8.708507,-0.0824 0.01153,-0.0217 0.03918,-0.0855 0.09902,-0.19434 0.178884,-0.32627 0.646175,-1.05284 1.840917,-2.22521 1.59317,-1.56325 2.347077,-1.84384 2.433622,-1.88961 0.02151,-0.0118 0.0433,0.005 0.02163,-0.004 z"
       id="path10127"
       inkscape:connector-curvature="0"
       sodipodi:nodetypes="ccccccccccccscccccc" />
    <path
       style="fill:none;stroke:#000000;stroke-width:0.266;stroke-linecap:round;stroke-linejoin:round;stroke-miterlimit:4;stroke-dasharray:none;stroke-opacity:1"
       d="m 79.351114,256.55522 c 0,0 8.181146,-6.27317 8.64255,-7.62637"
       id="path898"
       inkscape:connector-curvature="0" />
    <path
       inkscape:connector-curvature="0"
       id="path10113"
       d="m 87.219934,247.66524 c -0.09628,-2.3e-4 -0.192455,0.002 -0.288838,0.008 -1.0601,0.0768 -2.139083,0.63033 -3.392129,1.65892 -0.227807,0.18702 -0.461436,0.38988 -0.70171,0.6083 -0.240273,0.2184 -0.487498,0.45206 -0.742174,0.70182 -1.307179,1.28264 -2.195923,2.3721 -2.669491,3.39478 l 2.66251,3.37718 8.577661,0.0812 c -0.123437,0.14053 -0.259123,0.28995 -0.409871,0.44901 -0.15083,0.159 -0.316497,0.3276 -0.498717,0.50637 -1.364807,1.33921 -2.165683,1.78642 -2.489914,1.92612 -0.108024,0.0467 -0.163076,0.0596 -0.168305,0.0592 -0.02124,9.7e-4 -0.835064,-0.21555 -2.620583,-2.03541 l -2.47964,2.43212 c 3.997016,4.07349 6.117216,4.09352 10.190672,0.0965 1.307175,-1.28268 2.196431,-2.3716 2.669999,-3.39428 l 5.11e-4,2e-5 0.03175,-3.35173 -11.272856,-0.10669 c 0.123442,-0.14057 0.260013,-0.28999 0.410898,-0.44902 0.150864,-0.15902 0.31643,-0.32806 0.498713,-0.50687 1.819856,-1.78574 2.637584,-1.98496 2.658736,-1.98477 0.02134,-9.6e-4 0.834477,0.21487 2.620011,2.03495 l 2.478602,-2.43211 c -1.99856,-2.03668 -3.527082,-3.05975 -5.065916,-3.07431 z"
       style="opacity:1;fill:#ffffff;fill-opacity:1;stroke:#000000;stroke-width:0.53169596;stroke-linejoin:round;stroke-miterlimit:4;stroke-dasharray:none;stroke-opacity:1" />
    <path
       inkscape:connector-curvature="0"
       id="path10129"
       d="m 53.337612,279.55291 c 0,0 3.336709,2.72145 4.810898,3.27347 1.474237,0.55195 3.858038,4.47494 3.858038,4.47494 0,0 1.114076,-4.02438 -0.612589,-6.32715 -1.726651,-2.30282 -5.875295,-4.49407 -5.875295,-4.49407 0,0 5.497325,1.80051 8.722426,2.10001 3.225078,0.29968 7.807756,-0.73306 7.807756,-0.73306 0,0 -3.732451,-3.53226 -7.086938,-4.37101 -3.354514,-0.8387 -5.908445,-0.99738 -5.908445,-0.99738 0,0 2.007379,0.23654 7.132782,-0.47049 5.977968,-0.82464 11.142043,-2.38355 11.142043,-2.38355 0,0 -6.612623,-1.31432 -9.014378,-1.40431 -2.401754,-0.09 -8.955843,0.49531 -8.955843,0.49531 0,0 3.234009,-0.64185 5.666196,-1.82931 2.432175,-1.18744 5.450701,-7.48026 5.450701,-7.48026 0,0 -3.633639,0.23462 -7.146798,1.94983 -3.51317,1.71522 -6.490932,3.70448 -6.490932,3.70448 0,0 4.209974,-3.3521 5.878753,-5.11085 1.668779,-1.75875 4.30437,-5.01452 4.317107,-6.35938 0.01275,-1.34487 -5.418874,4.11812 -5.418874,4.11812 l -9.483947,7.30754 c 0,0 -1.509884,3.21364 -1.535349,5.90333 -0.02546,2.6897 2.742723,8.63375 2.742723,8.63375 z"
       style="fill:#a1fb00;fill-opacity:1;stroke:#000000;stroke-width:0.31999999;stroke-linecap:round;stroke-linejoin:round;stroke-miterlimit:4;stroke-dasharray:none;stroke-opacity:1"
       sodipodi:nodetypes="cccccccccsczccccczcccccc" />
    <path
       sodipodi:nodetypes="cccccscscscscscscc"
       inkscape:connector-curvature="0"
       id="path10131"
       d="m 56.071042,260.74923 c 0,0 -5.412495,3.44567 -6.105291,5.59107 -2.124296,4.18292 0.17476,9.95445 0.17476,9.95445 0,0 0.511199,2.82927 1.311746,3.50933 0.800521,0.68012 3.074055,2.04655 3.074055,2.04655 0,0 0.57227,-2.63717 -0.498463,-4.17411 -0.4349,-0.62426 -2.283665,-3.77899 -2.283665,-3.77899 0,0 1.093669,1.61575 4.181727,2.18297 3.08807,0.56722 7.801396,-0.0606 7.801396,-0.0606 0,0 -2.259515,-2.8458 -6.01236,-4.22631 -3.752847,-1.38048 -5.84616,-1.40923 -5.84616,-1.40923 -0.03977,-0.13257 3.161017,0.70531 7.207578,-0.32635 4.046289,-1.03159 6.573749,-2.33907 6.573749,-2.33907 0,0 -4.656595,-1.27419 -8.559216,-1.04214 -3.902603,0.23206 -4.846537,0.49213 -4.846537,0.49213 0,0 3.367211,-0.50615 5.132063,-2.23789 1.764853,-1.73175 2.611231,-5.89315 2.611231,-5.89315 z"
       style="fill:#a1fb00;fill-opacity:1;stroke:#000000;stroke-width:0.40000001;stroke-linecap:round;stroke-linejoin:round;stroke-miterlimit:4;stroke-dasharray:none;stroke-opacity:1" />
    <path
       inkscape:connector-curvature="0"
       id="path10133"
       d="m 50.749743,268.76871 c 2.952474,-0.34344 6.018258,-0.46027 9.282009,-0.18116"
       style="fill:none;stroke:#000000;stroke-width:0.266;stroke-linecap:round;stroke-linejoin:round;stroke-miterlimit:4;stroke-dasharray:none;stroke-opacity:1"
       sodipodi:nodetypes="cc" />
    <path
       inkscape:connector-curvature="0"
       id="path10135"
       d="m 51.851081,266.08916 c 2.10062,-1.07837 3.879228,-2.47876 5.418865,-4.11811"
       style="fill:none;stroke:#000000;stroke-width:0.266;stroke-linecap:round;stroke-linejoin:round;stroke-miterlimit:4;stroke-dasharray:none;stroke-opacity:1"
       sodipodi:nodetypes="cc" />
    <path
       inkscape:connector-curvature="0"
       id="path10137"
       d="m 52.421766,272.25194 c 2.617684,1.29106 5.005184,2.29311 7.684634,2.65767"
       style="fill:none;stroke:#000000;stroke-width:0.266;stroke-linecap:round;stroke-linejoin:round;stroke-miterlimit:4;stroke-dasharray:none;stroke-opacity:1"
       sodipodi:nodetypes="cc" />
    <path
       inkscape:connector-curvature="0"
       id="path10139"
       d="m 51.218931,276.03593 c 0,0 1.028388,2.50034 1.883481,3.64638"
       style="fill:none;stroke:#000000;stroke-width:0.266;stroke-linecap:round;stroke-linejoin:round;stroke-miterlimit:4;stroke-dasharray:none;stroke-opacity:1"
       sodipodi:nodetypes="cc" />
    <path
       inkscape:connector-curvature="0"
       id="path10141"
       d="m 56.317997,278.99512 c -0.156048,0.0993 3.488168,1.77166 4.775155,5.3386"
       style="fill:none;stroke:#000000;stroke-width:0.266;stroke-linecap:round;stroke-linejoin:round;stroke-miterlimit:4;stroke-dasharray:none;stroke-opacity:1"
       sodipodi:nodetypes="cc" />
    <path
       inkscape:connector-curvature="0"
       id="path10143"
       d="m 63.540632,281.53246 c 0,0 6.044181,0.86419 8.018158,5.45577"
       style="fill:none;stroke:#000000;stroke-width:0.266;stroke-linecap:round;stroke-linejoin:round;stroke-miterlimit:4;stroke-dasharray:none;stroke-opacity:1" />
    <path
       inkscape:connector-curvature="0"
       id="path10147"
       d="m 64.512776,276.41293 c 1.812159,0.46558 3.497324,0.57108 5.122969,0.60422"
       style="fill:none;stroke:#000000;stroke-width:0.266;stroke-linecap:round;stroke-linejoin:round;stroke-miterlimit:4;stroke-dasharray:none;stroke-opacity:1"
       sodipodi:nodetypes="cc" />
    <path
       inkscape:connector-curvature="0"
       id="path10149"
       d="m 69.947245,272.3329 c 7.708402,-1.00923 10.310384,-2.21807 14.426261,-3.51495"
       style="fill:none;stroke:#000000;stroke-width:0.266;stroke-linecap:round;stroke-linejoin:round;stroke-miterlimit:4;stroke-dasharray:none;stroke-opacity:1"
       sodipodi:nodetypes="cc" />
    <path
       inkscape:connector-curvature="0"
       id="path10151"
       d="m 58.713626,265.75065 c 3.876214,-0.18093 5.771973,-2.28272 8.107291,-3.95818"
       style="fill:none;stroke:#000000;stroke-width:0.266;stroke-linecap:round;stroke-linejoin:round;stroke-miterlimit:4;stroke-dasharray:none;stroke-opacity:1"
       sodipodi:nodetypes="cc" />
    <path
       inkscape:connector-curvature="0"
       id="path10153"
       d="m 60.279493,260.91003 c 1.680789,-1.3374 3.283655,-2.75273 4.441504,-4.61307"
       style="fill:none;stroke:#000000;stroke-width:0.266;stroke-linecap:round;stroke-linejoin:round;stroke-miterlimit:4;stroke-dasharray:none;stroke-opacity:1"
       sodipodi:nodetypes="cc" />
    <path
       inkscape:connector-curvature="0"
       id="path10155"
       d="m 60.031511,270.97795 c 3.085545,-0.28918 6.748045,-1.21204 9.942101,-1.07404"
       style="fill:none;stroke:#000000;stroke-width:0.266;stroke-linecap:round;stroke-linejoin:round;stroke-miterlimit:4;stroke-dasharray:none;stroke-opacity:1"
       sodipodi:nodetypes="cc" />
    <path
       inkscape:connector-curvature="0"
       id="path10157"
       d="m 70.35008,268.33779 c 0,0 7.4655,-2.94432 23.05683,-1.85526"
       style="fill:none;stroke:#000000;stroke-width:0.266;stroke-linecap:round;stroke-linejoin:round;stroke-miterlimit:4;stroke-dasharray:none;stroke-opacity:1"
       sodipodi:nodetypes="cc" />
    <path
       style="fill:none;stroke:#000000;stroke-width:0.26590514px;stroke-linecap:round;stroke-linejoin:round;stroke-opacity:1"
       d="m 76.839541,274.23053 c 4.106149,0.80977 7.273384,3.70344 10.029471,6.17295"
       id="path4544"
       inkscape:connector-curvature="0"
       sodipodi:nodetypes="cc" />
    <path
       inkscape:connector-curvature="0"
       id="path10145"
       d="m 71.43613,277.23854 c 0,0 4.327517,0.24146 7.947325,2.24413"
       style="fill:none;stroke:#000000;stroke-width:0.266;stroke-linecap:round;stroke-linejoin:round;stroke-miterlimit:4;stroke-dasharray:none;stroke-opacity:1"
       sodipodi:nodetypes="cc" />
    <path
       inkscape:connector-curvature="0"
       id="path10163"
       d="m 51.876523,274.05833 -2.758106,-3.45577"
       style="fill:none;stroke:#000000;stroke-width:0.40000001;stroke-linecap:butt;stroke-linejoin:miter;stroke-miterlimit:4;stroke-dasharray:none;stroke-opacity:1" />
    <path
       inkscape:connector-curvature="0"
       id="path10165"
       d="m 52.079318,270.39524 -3.125179,-0.19773"
       style="fill:none;stroke:#000000;stroke-width:0.40000001;stroke-linecap:butt;stroke-linejoin:miter;stroke-miterlimit:4;stroke-dasharray:none;stroke-opacity:1" />
    <path
       inkscape:connector-curvature="0"
       id="path10167"
       d="m 52.385555,267.13884 c -0.05859,-0.01 -2.299964,0.61464 -3.146209,1.34654"
       style="fill:none;stroke:#000000;stroke-width:0.40000001;stroke-linecap:butt;stroke-linejoin:miter;stroke-miterlimit:4;stroke-dasharray:none;stroke-opacity:1"
       sodipodi:nodetypes="cc" />
    <path
       inkscape:connector-curvature="0"
       id="path10169"
       d="m 4.823584,275.395 c 0,0 8.864926,8.35553 16.380196,10.10783 7.515235,1.75236 29.975478,1.83048 33.793639,3.41337"
       style="fill:none;stroke:none;stroke-width:0.26590514px;stroke-linecap:butt;stroke-linejoin:miter;stroke-opacity:1" />
    <path
       inkscape:connector-curvature="0"
       id="path10115"
       d="m 11.135005,253.06325 c -1.5388143,-0.014 -3.0869989,0.97983 -5.1237232,2.97839 -4.0734451,3.99701 -4.0934984,6.11721 -0.096456,10.19063 0.1757869,0.17997 0.3475848,0.34781 0.5165957,0.51182 l 0.02906,-3.07025 9.0201235,0.0853 -0.03021,3.19126 c 0.213066,-0.19587 0.430719,-0.40159 0.655091,-0.62171 4.073447,-3.99704 4.093505,-6.11724 0.09647,-10.19065 -1.998558,-2.0367 -3.528123,-3.06031 -5.066957,-3.07484 z m -0.03557,3.75883 c 0.01166,6e-4 0.01068,0.004 -2.32e-4,0.006 0.08589,0.0474 0.856516,0.34696 2.41957,1.93986 1.563163,1.59296 1.847943,2.36903 1.89375,2.45582 -2.870016,-0.0272 -5.9214433,-0.056 -8.708526,-0.0824 0.011781,-0.0214 0.039245,-0.0855 0.098983,-0.19435 0.1788807,-0.32623 0.6461704,-1.05282 1.8409242,-2.22521 1.5931708,-1.56324 2.3687568,-1.84797 2.4553148,-1.8937 -0.01185,-0.004 -0.01164,-0.007 4.59e-4,-0.008 z"
       style="opacity:1;fill:#ffffff;fill-opacity:1;stroke:#000000;stroke-width:0.53169596;stroke-linejoin:round;stroke-miterlimit:4;stroke-dasharray:none;stroke-opacity:1" />
    <path
       inkscape:connector-curvature="0"
       id="path4009"
       d="m 40.409534,270.50021 -1.914118,0.81282 0.440804,0.99458 1.168977,-0.51185 -0.0578,-0.14838 0.241457,-0.10145 c 0.332153,-0.13937 0.578223,-0.19512 0.737859,-0.16736 0.164534,0.0259 0.290082,0.14157 0.37669,0.34803 0.07607,0.18122 0.09352,0.3425 0.05233,0.48413 -0.03614,0.1395 -0.129264,0.27041 -0.27922,0.39255 l -0.66183,0.2422 -0.07102,-0.18273 -1.130491,0.49522 0.504839,1.139 1.085857,-0.47555 -0.05245,-0.13116 0.786197,-0.34777 c 0.220321,-0.0393 0.398557,-0.0312 0.534322,0.0244 0.133603,0.0504 0.233216,0.15398 0.298325,0.31046 0.0866,0.20643 0.07743,0.39665 -0.0271,0.57079 -0.104488,0.17413 -0.292583,0.31788 -0.564358,0.43191 -0.07547,0.0316 -0.248331,0.0923 -0.518346,0.18235 l -0.08559,-0.18785 -1.109667,0.48602 0.373839,1.02309 0.007,-0.004 c 0.470685,-0.16197 0.957775,-0.34854 1.461058,-0.55975 0.830217,-0.34842 1.38023,-0.74074 1.650683,-1.17693 0.488367,0.12274 1.037731,0.0489 1.653706,-0.20974 0.367929,-0.1544 1.171826,-0.68622 1.171826,-0.68622 l 0.03516,-0.0962 -0.555709,-1.19015 -0.140322,-0.0299 c -0.107496,0.24611 -0.380872,0.4951 -0.665384,0.66439 l -0.278554,-0.66381 0.530317,-0.2309 -0.09711,-0.21908 -0.08955,-0.24489 -1.269833,0.55297 0.155381,0.34088 0.04673,0.11634 0.51809,-0.22579 0.2629,0.68827 c -0.0067,0.004 -0.01324,0.004 -0.02031,0.01 -0.740076,0.31057 -1.221394,0.21757 -1.659245,-0.82579 -0.20224,-0.48194 -0.196637,-0.72223 -0.121594,-1.01667 0.08002,-0.29654 0.268512,-0.592 0.626146,-0.74214 0.02505,-0.0113 0.05077,-0.0205 0.07658,-0.0309 l 0.283483,0.64372 -0.554781,0.22324 0.184511,0.46476 1.29675,-0.52261 c -0.06862,-0.15192 -0.137002,-0.30441 -0.20553,-0.45651 l -0.4999,0.20138 -0.275325,-0.62748 c 0.29649,-0.0788 0.625515,-0.10836 0.909009,-0.0559 l 0.104251,-0.11611 -0.432554,-1.14859 -0.131166,-0.0451 c 0,0 -0.785807,0.14235 -1.188935,0.31146 l -5.3e-5,2e-5 c -0.637418,0.26749 -1.091289,0.63 -1.354875,1.10364 -0.06745,-0.0302 -0.138962,-0.0541 -0.214891,-0.0719 -0.380639,-0.0889 -0.830007,-0.024 -1.348386,0.1929 l -1.12e-4,5e-5 z m -0.225591,1.49793 -1.159793,0.50789 0.20042,0.45281 1.139369,-0.49898 z m 0.800289,2.02496 -1.078688,0.47267 0.09614,0.21684 0.08861,0.24251 1.093923,-0.47906 -0.153804,-0.33744 -0.04623,-0.11532 z"
       style="font-style:normal;font-variant:normal;font-weight:800;font-stretch:normal;font-size:40px;line-height:125%;font-family:'Alegreya Sans SC';-inkscape-font-specification:'Alegreya Sans SC, Ultra-Bold';text-align:start;letter-spacing:0px;word-spacing:0px;writing-mode:lr-tb;text-anchor:start;display:inline;opacity:1;fill:#000000;fill-opacity:1;stroke:none;stroke-width:0.06568819px;stroke-linecap:butt;stroke-linejoin:miter;stroke-opacity:1" />
  </g>
  <g
     inkscape:groupmode="layer"
     id="layer2"
     inkscape:label="CutContour"
     transform="translate(0.94794415,6.1064438)"
     style="display:inline">
    <path
       inkscape:connector-curvature="0"
       id="path892"
       d="m 54.732854,6.9186453 c -0.100056,0.04632 -0.193769,0.09184 -0.282331,0.137016 -0.259571,0.132331 -0.516825,0.278636 -0.772362,0.440832 -0.02407,0.01519 -0.04647,0.03203 -0.06927,0.04675 l -0.0021,-2.36e-4 c -0.126464,0.08157 -0.235343,0.160331 -0.34979,0.241184 -0.06257,-0.07663 -0.124109,-0.153193 -0.191171,-0.231264 -0.328463,-0.382136 -0.670718,-0.733925 -1.004963,-1.063042 -0.223036,-0.219542 -0.44332,-0.429991 -0.657378,-0.628407 C 51.195983,5.6690243 50.990003,5.4814813 50.784637,5.3019743 50.385501,4.9532423 50.039184,4.6715252 49.728635,4.4463489 49.628016,4.3734499 49.516325,4.295946 49.391477,4.2182976 49.268978,4.1421136 49.153243,4.0776156 49.048142,4.0217908 48.826592,3.9039836 48.601746,3.8025758 48.377203,3.7148128 47.940317,3.5440708 47.547537,3.4365916 47.183345,3.336589 47.086235,3.30988 47.011083,3.298788 46.926496,3.280946 46.822609,3.1680746 46.572014,2.8236829 46.623355,2.8721248 46.445047,2.7038373 46.257132,2.5463558 46.061446,2.3970416 45.865783,2.2477098 45.677519,2.1163014 45.490198,1.9905895 45.102391,1.7302968 44.650788,1.4514364 44.148058,1.1862563 43.645343,0.92106777 43.098314,0.67346147 42.506961,0.47752837 c -1.539301,-0.510007 -2.422433,-0.541415 -2.933888,-0.585893 -0.140705,-0.129435 -0.292922,-0.265269 -0.491756,-0.405761 l -0.0021,-2.37e-4 c -0.236403,-0.166734 -0.50936,-0.33057 -0.81096,-0.475236 -0.162092,-0.07775 -0.320804,-0.14282597 -0.478736,-0.20405597 -0.519212,-0.201321 -1.021762,-0.292944 -1.426175,-0.329151 -0.140054,-0.01286 -0.263269,-0.01865 -0.368776,-0.02257 -0.175249,-0.0064 -0.346543,-0.0052 -0.512747,-4.03e-4 -0.673641,0.01954 -0.836376,0.09631 -1.214156,0.176995 -0.128154,-0.06565 -0.233035,-0.107565 -0.305463,-0.136045 -0.0021,-7.75e-4 -0.0038,-9.67e-4 -0.006,-0.0023 -0.05765,-0.02244 -0.089,-0.03225 -0.117978,-0.04198 l -0.01454,-0.0048 c -0.01466,-0.0057 -1.218237,-0.445403 -2.475902,-0.712357 -0.186274,-0.03954 -0.372092,-0.07314 -0.554808,-0.101905 -0.313813,-0.04926 -0.612001,-0.06717 -0.885479,-0.06606 -0.879611,0.0031 -1.620516,0.162506 -2.164058,0.312179 -0.203397,0.05594 -0.348752,0.1064 -0.494608,0.156116 -0.31232,-0.0189 -0.634592,-0.04412 -1.411841,-0.05189 -1.144742,-0.01146 -2.57433,-0.01185 -4.013328,0.315756 -0.962832,0.219214 -1.803809,0.582466 -2.517112,0.96749297 -0.431301,0.232806 -0.813691,0.475336 -1.141821,0.69955 -0.57711,0.394359 -0.721078,0.551349 -0.968779,0.769615 -0.06251,0.022199 -0.135089,0.036178 -0.193593,0.060744 l -0.0015,-1.698e-4 c -0.09989,0.042116 -0.228129,0.099952 -0.386316,0.1917968 -0.0025,0.00173 -0.92338,0.53489573 -1.9548,1.15918113 -0.99996,0.605218 -2.040529,1.1881761 -2.930003,1.94419 -0.151363,0.128738 -0.282137,0.2527395 -0.396353,0.3674843 -0.126449,0.1272455 -0.24532,0.2563994 -0.355703,0.3850944 -0.222095,0.258949 -0.417613,0.52166 -0.59542,0.783859 -0.174636,0.257476 -0.334555,0.517503 -0.4858913,0.776513 -0.147268,0.252076 -0.288234,0.503712 -0.425519,0.753194 -0.297269,0.540222 -0.572354,1.094151 -0.800576,1.653049 -0.07711,0.188845 -0.2013192,0.453188 -0.3172949,0.844514 l 2.782e-4,0.0021 C 8.327141,9.7468783 8.306491,9.8394023 8.292265,9.9326643 8.262669,10.057013 8.229657,10.168792 8.209301,10.311235 l 2.783e-4,0.0021 c -2.36e-5,1.66e-4 -3.44e-5,3.47e-4 -5.82e-5,5.13e-4 -0.033561,0.235049 -0.050265,0.486879 -0.047651,0.741426 8.753e-4,0.07839 0.015773,0.131138 0.021291,0.202122 -0.054443,0.04968 -0.1161837,0.104684 -0.1493105,0.138055 -7.032e-4,7.15e-4 -0.00147,8.63e-4 -0.00228,0.0018 -4.913e-4,5.07e-4 -0.00132,0.0014 -0.00172,0.0013 -0.077249,0.07809 -0.1533034,0.162346 -0.2238031,0.249227 l -0.00177,0.0018 c -0.068762,0.085 -0.1332647,0.172768 -0.2001771,0.274789 0.00739,-0.01195 -0.00989,0.0078 -0.069803,0.106503 -0.00673,0.0105 -0.012727,0.02151 -0.019246,0.03214 0,0 -0.098922,0.183684 -0.1313359,0.240987 -0.082661,0.05685 -0.1681097,0.11505 -0.2438841,0.169461 -0.1496187,0.107469 -0.1957547,0.14545 -0.1448489,0.107874 l -2.361e-4,0.0021 c -0.1847367,0.136473 -0.3968685,0.2952 -0.6310482,0.487683 -0.1122405,0.09244 -0.1711815,0.145883 -0.1773026,0.151004 -0.1876358,0.158151 -0.3883185,0.328132 -0.6016263,0.522079 l 0.05214,-0.04245 c -0.019009,0.01596 -0.038159,0.03198 -0.056491,0.04872 -0.2564836,0.233273 -0.5237194,0.481958 -0.798793,0.75196 -0.5438665,0.533681 -1.0326348,1.049164 -1.4693692,1.561103 l -2.36e-4,0.0021 c -0.101367,0.119658 -0.1898433,0.249847 -0.2634871,0.388222 -0.5165284,0.642744 -1.0022811,1.280766 -1.3380717,1.976448 l -2.36e-4,0.0021 c -0.060218,0.12476 -0.1243039,0.261766 -0.1883997,0.418623 -0.065014,0.159171 -0.1157173,0.305417 -0.1584173,0.433986 -0.044884,0.135094 -0.074704,0.243654 -0.095443,0.318907 0.026867,-0.0977 0.011034,-0.05891 -0.035373,0.123929 l -4.625e-4,0.0041 c -0.00402,0.01857 -0.00755,0.03682 -0.010971,0.05544 -0.033847,0.14027 -0.064137,0.276587 -0.085235,0.398598 -0.1315411,0.76178 -0.1062029,1.559193 0.070274,2.316058 l -2.361e-4,0.0021 c 0.069154,0.296573 0.1594588,0.591697 0.2726339,0.884351 0.089159,0.230555 0.1932079,0.436343 0.2964583,0.642095 7.004e-4,0.002 0.00152,0.0044 0.00237,0.0066 0.030564,0.06081 0.057007,0.130348 0.08826,0.189432 l -2.36e-4,0.0021 c 0.069197,0.130708 0.145339,0.264867 0.227825,0.403403 0.078246,0.131399 0.154087,0.251227 0.2285384,0.364999 0.00703,0.01076 0.014199,0.02393 0.021038,0.03462 l -2.36e-4,0.0021 c 0.092145,0.140086 0.1849369,0.269707 0.2732169,0.392947 0.5616809,0.784145 1.2397326,1.553633 2.0395462,2.368731 0.1947179,0.198551 0.380678,0.379732 0.5570028,0.55046 0.9535137,0.922897 2.501797,0.794218 3.2897931,-0.273486 0.040426,0.0831 0.091112,0.194006 0.128085,0.269358 0.15541,0.316894 0.281098,0.571928 0.347331,0.707152 0.398008,0.812544 0.956475,1.336525 1.1761887,1.570832 0.367954,0.392381 0.774989,0.794133 1.160538,1.167559 0.736377,0.713227 1.353629,1.273951 1.422669,1.337179 0.01,0.01636 0.318076,0.526109 0.735863,1.133457 0.363754,0.5288 0.869204,1.34371 1.767677,2.087755 0.674198,0.558296 1.439363,1.029728 2.10026,1.424918 0.330444,0.197596 0.628515,0.366451 0.849263,0.491018 0.220754,0.124569 0.540572,0.30682 0.348015,0.196515 0.0042,0.0022 0.0083,0.0043 0.01277,0.0067 0.06846,0.03867 0.125448,0.05467 0.190014,0.08551 0.133408,0.183671 0.152207,0.289227 0.296175,0.410633 0.0013,7.34e-4 0.0035,0.0013 0.0044,0.002 0.01959,0.0162 0.03949,0.03215 0.05958,0.04784 0.05416,0.04534 0.112558,0.09659 0.223483,0.175637 l 0.0021,2.36e-4 c 0.08829,0.06196 0.18074,0.117241 0.277149,0.165601 0.120449,0.07379 0.23663,0.15459 0.3648,0.218182 0.118857,0.059 0.239215,0.111144 0.357059,0.158018 l 0.0021,-2.77e-4 c 0.409273,0.162664 0.896573,0.239785 1.398271,0.2771 0.192937,0.171772 0.202082,0.194202 0.457459,0.405511 0.328813,0.272139 0.727614,0.608319 1.218267,0.947355 0.104902,0.07261 0.231437,0.160126 0.384065,0.254692 l 0.0016,-3.36e-4 c 0.07365,0.04527 0.149947,0.08643 0.228452,0.122633 0.209543,0.121067 0.419347,0.242564 0.657834,0.349179 0.159687,0.07137 0.328091,0.13835 0.504139,0.200175 0.487803,0.171275 0.976834,0.296932 1.45768,0.404494 1.445634,0.323542 2.866519,0.47482 2.875126,0.475737 2.6e-5,3e-6 0.0086,0.002 0.0086,0.002 0.06027,0.01052 0.06915,0.016 0.171377,0.02513 0.261417,0.02325 0.143599,-0.02516 0.279475,-0.03385 0.217165,0.09736 0.343675,0.213468 0.655942,0.25119 0.06118,0.0074 0.104075,-0.0056 0.160991,-0.0026 0.07163,0.02654 0.168745,0.06574 0.417004,0.147649 l 0.0021,-2.77e-4 c 0.008,0.0024 0.01589,0.0047 0.02367,0.0068 0.312899,0.102984 0.749794,0.240274 1.286073,0.381399 0.544752,0.143386 1.181261,0.288934 1.877456,0.408395 0.344832,0.05917 0.708575,0.113711 1.089004,0.156224 0.379571,0.04245 0.768448,0.07304 1.163806,0.08826 0.702239,0.02694 1.328475,0.01825 1.87759,-0.01025 0.821803,-0.04237 1.466688,-0.128842 1.929234,-0.213462 0.379846,-0.06949 0.652087,-0.143959 0.724437,-0.164907 8.43e-4,-2.5e-4 0.0085,-0.0019 0.0085,-0.0022 1.89e-4,-6.9e-5 0.0038,-0.0015 0.0039,-0.0016 0.02076,-0.0073 0.250655,-0.09139 0.327661,-0.119395 0.468735,0.06737 0.914627,0.08208 1.061155,0.08078 0.283345,-0.0027 0.566253,-0.01633 0.850046,-0.03885 l 0.0021,-2.77e-4 c 0.283376,-0.02254 0.553685,-0.05183 0.80974,-0.08243 0.268006,-0.03204 0.527928,-0.0682 0.773209,-0.104247 0.744139,-0.109383 1.376363,-0.227116 1.743338,-0.303189 0.255329,-0.05294 0.495537,-0.120349 0.720567,-0.194987 0.222093,-0.07369 0.430968,-0.156178 0.626394,-0.240512 0.385314,-0.166301 0.714847,-0.336847 1.004781,-0.486252 0.644593,-0.332174 1.213348,-0.666367 1.527367,-0.852427 0.07681,-0.04552 0.06954,-0.04659 0.118308,-0.08021 1.245836,0.944108 2.946647,1.978021 2.946647,1.978021 0.626532,0.376353 1.399451,0.415709 2.061088,0.105208 0.04622,0.03003 0.08832,0.0642 0.134472,0.09377 l 0.0021,2.36e-4 c 0.01348,0.008 0.02719,0.01576 0.04046,0.02384 0.276218,0.175853 0.553019,0.344634 0.831898,0.49737 0.279142,0.152892 0.554728,0.286234 0.855625,0.402808 0.0012,6.06e-4 -0.0048,-0.0032 -0.0034,-0.0024 0.01516,0.0074 0.03105,0.01584 0.05992,0.02655 -0.01967,-0.0074 -0.03713,-0.01656 -0.05656,-0.02409 -0.02625,-0.01302 0.0038,0.0021 0.07133,0.05437 0.139375,0.108137 0.394843,0.350709 0.66098,0.6517 0.266261,0.30114 0.553502,0.661877 0.818581,1.018535 0.172304,0.231817 0.339218,0.470138 0.497948,0.699787 0.462339,0.668852 0.765468,1.165935 0.765468,1.165935 1.019636,1.667595 3.546612,1.268973 4.00336,-0.63153 0,0 0.03764,-0.151993 0.08291,-0.355173 l -0.0035,0.0126 c 0.01745,-0.07407 0.03667,-0.156821 0.0629,-0.288792 l -2.79e-4,-0.0021 c 0.02591,-0.130034 0.03957,-0.212119 0.04985,-0.269989 l 2.36e-4,-0.0021 c 0.02974,-0.166422 0.05416,-0.328532 0.07774,-0.49306 0.0099,-0.0694 0.02348,-0.17515 0.03602,-0.276235 0.08645,0.05148 0.168957,0.100264 0.266947,0.15924 0.142603,0.08579 0.263582,0.15452 0.347877,0.206905 0.122036,0.07583 0.254786,0.163678 0.411433,0.265598 0.130247,0.0847 0.230174,0.149067 0.290049,0.189425 0.105827,0.07143 0.229106,0.158988 0.381523,0.267925 0.129244,0.0924 0.218312,0.155011 0.249215,0.178036 0.192609,0.143863 0.3716,0.283941 0.528425,0.417197 0.721397,0.612819 1.451579,1.323389 2.134662,2.043549 0.683598,0.720682 1.320453,1.451719 1.861865,2.101031 0.53972,0.64728 0.985051,1.216792 1.296082,1.623432 0.309319,0.404433 0.470321,0.626961 0.470318,0.626961 1.296808,1.793605 4.13187,0.755394 3.963704,-1.451504 0,0 -0.0049,-0.0836 -0.0036,-0.06906 l -5.88e-4,0.02385 c 0,0 -0.01105,-0.186806 -0.03835,-0.459935 -0.09382,-0.942692 -0.368738,-3.220154 -1.148306,-5.651815 -0.245877,-0.766951 -0.662509,-1.546169 -1.029094,-2.326986 0.451259,0.150703 0.98594,0.307113 1.386123,0.453066 0.04842,0.01768 0.100472,0.03819 0.158115,0.05953 l 0.0021,-2.76e-4 c 0.277723,0.102723 0.539461,0.206502 0.797449,0.310398 0.108226,0.04369 0.207963,0.08178 0.279605,0.111795 l 2.81e-4,0.0021 c 0.06543,0.02739 0.123042,0.05127 0.17275,0.07263 l 2.35e-4,-0.0021 c 0.210618,0.09076 0.398471,0.176094 0.542676,0.245632 0.294374,0.141951 0.60782,0.328301 0.928038,0.557678 0.217198,0.155555 0.434574,0.327345 0.647374,0.510254 0.214432,0.184488 0.431026,0.388306 0.649101,0.605108 0.755105,0.75074 1.486888,1.654112 2.132196,2.560741 0.181944,0.255692 0.359381,0.514116 0.531222,0.773248 0.169899,0.25613 0.332261,0.510678 0.486177,0.757739 0.156311,0.25092 0.299864,0.488491 0.43286,0.714247 0.06954,0.118104 0.1395,0.240932 0.223807,0.388388 0.05685,0.09947 0.113097,0.198223 0.15433,0.271811 0.0052,0.0071 0.0097,0.01443 0.01474,0.02143 0.257246,0.4603 0.430781,0.798397 0.585787,1.103962 0.09927,0.188628 0.19375,0.379563 0.2868,0.571309 1.013617,2.174043 4.280998,1.376079 4.178512,-1.020451 -0.0022,-0.05098 -0.0058,-0.101457 -0.01136,-0.15211 -0.0018,-0.03727 -0.0054,-0.07472 -0.0097,-0.111875 0,0 -0.226851,-1.668798 -0.607114,-3.668263 -0.279029,-1.467196 -0.734633,-2.959896 -1.202868,-4.395264 0.356437,0.127747 0.777174,0.283577 1.124967,0.40786 1.002115,0.358496 1.50828,0.537974 2.271012,0.808745 1.648471,0.585294 2.857261,1.01407 2.857261,1.01407 1.514441,0.53589 3.071937,-0.684372 2.913812,-2.283033 -0.02735,-0.432987 -0.182349,-0.848327 -0.44566,-1.19313 0,0 -1.940548,-2.532636 -4.436724,-5.303284 -2.082534,-2.311527 -4.405589,-4.584086 -6.872724,-6.08341 0.186843,-0.08703 0.352836,-0.150141 0.538672,-0.237452 0.01235,-0.0059 0.05554,-0.02518 0.10974,-0.05049 l 0.01531,-0.0066 c 0.02916,-0.01396 0.06197,-0.03027 0.03856,-0.01903 l -0.02176,0.0085 c 0.515782,-0.242869 0.998578,-0.473898 1.47893,-0.705018 0.518013,-0.08216 1.041881,-0.16881 1.57512,-0.25985 0.100577,-0.01718 0.215172,-0.03655 0.343677,-0.05881 0.39094,-0.06765 0.774217,-0.135863 1.160691,-0.205419 0.592371,-0.10652 1.175341,-0.213192 1.755938,-0.322564 0.248353,-0.04682 0.490802,-0.09298 0.742018,-0.141068 0.694792,-0.132989 1.366864,-0.26069 2.009917,-0.388422 1.297125,-0.2577 2.132739,-0.431955 2.931966,-0.599055 l -0.0018,0.0018 c 0.920472,-0.19197 1.564501,-0.330591 1.564951,-0.330692 1.064574,-0.230756 1.798274,-1.208084 1.723134,-2.294764 -2e-5,-0.003 3.6e-4,-0.0063 4.2e-4,-0.0083 -0.0255,-0.671758 -0.35735,-1.293956 -0.900124,-1.689316 0,0 -2.333362,-1.577617 -6.280447,-2.518238 0.0676,-0.06541 0.133663,-0.09667 0.201584,-0.163333 1.394863,-1.368703 2.458716,-2.603472 3.123228,-4.038469 0.131167,-0.282583 0.201031,-0.590016 0.204143,-0.901549 l 0.03247,-3.3508 c 0.01152,-1.21097 -0.960594,-2.201865 -2.171546,-2.213633 l -0.82135,-0.0078 c 0.596441,-0.864585 0.495433,-2.0305837 -0.240212,-2.7805077 -0.239526,-0.244096 -0.477658,-0.479216 -0.718492,-0.708666 0.698433,-1.159231 1.420359,-2.343232 2.013018,-3.388382 1.905694,-3.3607267 3.183806,-5.89398693 3.183806,-5.89398693 0.174574,-0.34861397 0.253314,-0.73764997 0.227584,-1.12668397 -10e-6,-0.002 5e-5,-0.0037 1.3e-4,-0.0057 -0.003,-0.0488 -0.007,-0.09756 -0.0136,-0.146122 -0.10136,-1.020477 -0.89352,-1.824861 -1.892714,-1.95735 l 4.1e-5,9e-5 c -0.06661,-0.0088 -0.134122,-0.0145 -0.202436,-0.01723 l 0.0013,0.0017 c -0.710636,-0.02712 -1.390623,0.291653 -1.823665,0.855762 0,0 -1.013692,1.360344 -7.620767,7.4463005 -0.621092,0.5720354 -1.32342,1.1925284 -2.085915,1.8386154 l -0.01539,0.00745 C 84.04578,6.4215803 83.252964,6.805826 82.319412,7.571727 82.471052,6.788977 82.764003,5.63833 82.876238,5.004318 l -2.79e-4,-0.0021 c 0.124789,-0.6994888 0.226779,-1.287836 0.302193,-1.7480601 l -3.41e-4,-0.0016 c 0.07071,-0.4328094 0.09621,-0.5864183 0.118689,-0.7349318 l -4.8e-5,-0.00416 c 0.0071,-0.044585 0.07055,-0.4442712 0.03885,-0.2462721 0.02475,-0.1653937 0.03085,-0.3331624 0.01767,-0.4998688 -0.0974,-2.51943783 -3.672847,-2.9110058 -4.312997,-0.4723263 0,0 -1.679505,5.8991961 -4.257831,10.3259991 -0.363242,-0.136287 -0.754887,-0.158935 -1.135529,-0.227551 0.0731,-1.43036 0.227698,-2.968866 0.148451,-4.075638 l -2.79e-4,-0.0021 C 73.679779,5.662275 73.480682,4.4763624 73.480682,4.4763624 73.093814,2.1974765 69.900052,1.9902177 69.221916,4.2000116 c 0,0 -1.367402,3.8638244 -3.02745,7.2259424 -0.152609,0.0773 -0.468601,0.103551 -0.59783,0.176658 -0.02581,0.01459 -0.0461,0.03811 -0.07151,0.05274 -0.02545,-0.03116 -0.05236,-0.06501 -0.07211,-0.08878 l -0.0018,-0.0018 C 65.266529,11.341446 65.071474,11.115477 64.86545,10.887276 64.81707,10.833786 64.77388,10.785678 64.738331,10.747007 64.528651,10.518279 64.305593,10.279879 64.060319,10.029928 63.524499,9.483982 63.00676,8.994978 62.497159,8.560326 62.115594,8.23485 61.734856,7.935897 61.34052,7.665726 60.426557,7.039603 59.447749,6.56928 58.376798,6.38423 58.086238,6.33408 57.775878,6.30133 57.448335,6.2982 c -0.149368,-0.0014 -0.297801,0.003 -0.44407,0.01311 -0.115768,0.0081 -0.168776,0.01668 -0.158852,0.0158 l -0.0021,-2.36e-4 c -0.09168,0.0088 -0.179015,0.01985 -0.264181,0.03194 l 0.0044,-0.0016 c -0.110257,0.01558 -0.173475,0.02919 -0.191419,0.03239 l -0.0021,2.77e-4 c -0.07505,0.01313 -0.163735,0.02885 -0.26428,0.05117 -0.03034,0.0067 -0.08038,0.01753 -0.150621,0.03493 l -0.0021,-2.36e-4 c -0.06234,0.01548 -0.150954,0.03788 -0.262326,0.07064 -0.111578,0.03274 -0.171031,0.05443 -0.182916,0.05832 -0.079,0.02576 -0.153157,0.0522 -0.221992,0.07728 -0.0123,0.0046 -0.07746,0.02652 -0.189565,0.07108 -0.126796,0.05034 -0.212093,0.08921 -0.262815,0.111665 0.0052,-0.0014 -0.01344,0.00444 -0.09654,0.042818 z"
       style="display:inline;fill:none;fill-opacity:1;fill-rule:evenodd;stroke:#ff00ff;stroke-width:0.05;stroke-linecap:round;stroke-linejoin:round;stroke-miterlimit:4;stroke-dasharray:none;stroke-opacity:1"
       sodipodi:nodetypes="ccccccccccccccccccccccccccccccccccccccccccccccccccccccccccccccccccccccccccccccccccccccccccccccccccccccccccccccccccccccccccccccccccccccccccccccccccccsccccccccccccccccccccccccccccccccccccccccccccccccccccccccccsccccccccccccccccccccccccccccccccscccccccccccccccccccccccccccccccccccccccccccccccccccccccccccccccccccccccccccccccccccccc" />
  </g>
</svg>
